<svg xmlns="http://www.w3.org/2000/svg" viewBox="0 0 760 433" role="img" aria-label="Five Signals of Your 11th House at Work">
  <defs>
    <linearGradient id="11thhouse1en-panel" x1="0" y1="0" x2="0.4" y2="1">
      <stop offset="0" stop-color="#1a1433"/><stop offset="0.55" stop-color="#120e26"/><stop offset="1" stop-color="#09081a"/>
    </linearGradient>
    <radialGradient id="11thhouse1en-foil" cx="0.42" cy="0.34" r="0.75">
      <stop offset="0" stop-color="#fbf0d2"/><stop offset="0.5" stop-color="#e8c882"/><stop offset="1" stop-color="#b8923f"/>
    </radialGradient>
    <radialGradient id="11thhouse1en-glow" cx="0.5" cy="0.5" r="0.5">
      <stop offset="0" stop-color="#f6e6bf"/><stop offset="1" stop-color="#f6e6bf" stop-opacity="0"/>
    </radialGradient>
    <radialGradient id="11thhouse1en-neb1" cx="0.5" cy="0.5" r="0.5">
      <stop offset="0" stop-color="#6f4bb0" stop-opacity="0.28"/><stop offset="1" stop-color="#6f4bb0" stop-opacity="0"/>
    </radialGradient>
    <radialGradient id="11thhouse1en-neb2" cx="0.5" cy="0.5" r="0.5">
      <stop offset="0" stop-color="#d4af6a" stop-opacity="0.16"/><stop offset="1" stop-color="#d4af6a" stop-opacity="0"/>
    </radialGradient>
    <linearGradient id="11thhouse1en-rule" x1="0" y1="0" x2="1" y2="0">
      <stop offset="0" stop-color="#d4af6a" stop-opacity="0"/><stop offset="0.5" stop-color="#d4af6a" stop-opacity="0.6"/><stop offset="1" stop-color="#d4af6a" stop-opacity="0"/>
    </linearGradient>
  </defs>
  <rect x="1.5" y="1.5" width="757" height="430" rx="22" fill="url(#11thhouse1en-panel)"/>
  <ellipse cx="198" cy="104" rx="380" ry="147" fill="url(#11thhouse1en-neb1)"/>
  <ellipse cx="623" cy="346" rx="334" ry="139" fill="url(#11thhouse1en-neb2)"/>
  <circle cx="370.6" cy="368.7" r="1.39" fill="#cfc8ea" opacity="0.41"/><circle cx="375.5" cy="379.7" r="0.90" fill="#cfc8ea" opacity="0.27"/><circle cx="691.1" cy="139.1" r="1.56" fill="#cfc8ea" opacity="0.19"/><circle cx="257.4" cy="18.6" r="1.06" fill="#cfc8ea" opacity="0.20"/><circle cx="93.8" cy="341.1" r="0.68" fill="#cfc8ea" opacity="0.26"/><circle cx="225.4" cy="153.8" r="1.19" fill="#cfc8ea" opacity="0.22"/><circle cx="305.1" cy="103.6" r="0.48" fill="#cfc8ea" opacity="0.21"/><circle cx="12.2" cy="127.3" r="0.87" fill="#cfc8ea" opacity="0.19"/><circle cx="368.3" cy="48.3" r="1.62" fill="#cfc8ea" opacity="0.45"/><circle cx="225.4" cy="118.2" r="1.23" fill="#cfc8ea" opacity="0.15"/><circle cx="656.8" cy="315.3" r="1.45" fill="#cfc8ea" opacity="0.33"/><circle cx="178.7" cy="190.8" r="0.93" fill="#cfc8ea" opacity="0.38"/><circle cx="608.3" cy="29.7" r="0.47" fill="#cfc8ea" opacity="0.36"/><circle cx="609.0" cy="227.5" r="0.52" fill="#cfc8ea" opacity="0.33"/><circle cx="499.7" cy="55.5" r="1.01" fill="#cfc8ea" opacity="0.34"/><circle cx="697.4" cy="145.0" r="1.47" fill="#cfc8ea" opacity="0.18"/><circle cx="21.5" cy="351.3" r="0.40" fill="#cfc8ea" opacity="0.18"/><circle cx="482.0" cy="305.6" r="0.54" fill="#cfc8ea" opacity="0.12"/><circle cx="497.0" cy="147.3" r="1.57" fill="#cfc8ea" opacity="0.31"/><circle cx="738.8" cy="275.1" r="1.38" fill="#cfc8ea" opacity="0.18"/><circle cx="451.6" cy="66.1" r="1.07" fill="#cfc8ea" opacity="0.43"/><circle cx="655.1" cy="296.5" r="0.52" fill="#cfc8ea" opacity="0.38"/><circle cx="250.6" cy="393.4" r="1.46" fill="#cfc8ea" opacity="0.18"/><circle cx="291.0" cy="145.1" r="1.41" fill="#cfc8ea" opacity="0.42"/><circle cx="275.6" cy="144.9" r="0.84" fill="#cfc8ea" opacity="0.31"/><circle cx="263.2" cy="14.7" r="1.61" fill="#cfc8ea" opacity="0.19"/><circle cx="510.4" cy="292.9" r="1.65" fill="#cfc8ea" opacity="0.37"/><circle cx="71.8" cy="352.2" r="1.15" fill="#cfc8ea" opacity="0.43"/><circle cx="294.9" cy="14.3" r="0.75" fill="#cfc8ea" opacity="0.26"/><circle cx="524.7" cy="368.2" r="1.23" fill="#cfc8ea" opacity="0.27"/><circle cx="319.8" cy="183.3" r="0.71" fill="#cfc8ea" opacity="0.31"/><circle cx="696.8" cy="338.1" r="1.61" fill="#cfc8ea" opacity="0.42"/><circle cx="60.4" cy="30.8" r="0.96" fill="#cfc8ea" opacity="0.18"/><circle cx="471.6" cy="361.4" r="0.75" fill="#cfc8ea" opacity="0.20"/><circle cx="377.3" cy="50.8" r="0.72" fill="#cfc8ea" opacity="0.35"/><circle cx="746.8" cy="317.2" r="1.52" fill="#cfc8ea" opacity="0.41"/><circle cx="51.0" cy="233.9" r="1.32" fill="#cfc8ea" opacity="0.38"/><path d="M 575.2330708354712 232.8 L 575.8 235.5 L 578.5 236.02116514439695 L 575.8 236.5 L 575.2330708354712 239.3 L 574.7 236.5 L 572.0 236.02116514439695 L 574.7 235.5 Z" fill="#f6e6bf" opacity="0.6236137767089531"/><path d="M 725.7923850789666 293.9 L 726.4 296.9 L 729.4 297.517274329206 L 726.4 298.1 L 725.7923850789666 301.1 L 725.2 298.1 L 722.2 297.517274329206 L 725.2 296.9 Z" fill="#f6e6bf" opacity="0.7893721796339377"/><path d="M 496.78472170233727 198.6 L 497.2 200.9 L 499.6 201.33979698154144 L 497.2 201.8 L 496.78472170233727 204.1 L 496.3 201.8 L 494.0 201.33979698154144 L 496.3 200.9 Z" fill="#f6e6bf" opacity="0.7464285830734297"/><path d="M 520.8939472064376 273.9 L 521.4 276.8 L 524.3 277.32303338102065 L 521.4 277.9 L 520.8939472064376 280.8 L 520.3 277.9 L 517.5 277.32303338102065 L 520.3 276.8 Z" fill="#f6e6bf" opacity="0.6124214557697997"/><path d="M 245.28509874641895 338.9 L 245.9 342.1 L 249.1 342.69998452137224 L 245.9 343.3 L 245.28509874641895 346.5 L 244.7 343.3 L 241.5 342.69998452137224 L 244.7 342.1 Z" fill="#f6e6bf" opacity="0.7306038141949103"/><path d="M 257.4 18.6 L 738.8 275.1 L 250.6 393.4 L 263.2 14.7 L 377.3 50.8" fill="none" stroke="#d4af6a" stroke-width="0.6" opacity="0.12"/>
  <rect x="1.5" y="1.5" width="757" height="430" rx="22" fill="none" stroke="#d4af6a" stroke-opacity="0.34" stroke-width="1.2"/>
  <rect x="7" y="7" width="746" height="419" rx="17" fill="none" stroke="#d4af6a" stroke-opacity="0.12" stroke-width="0.8"/>
  <path d="M 16 12.8 L 16.5 15.5 L 19.2 16 L 16.5 16.5 L 16 19.2 L 15.5 16.5 L 12.8 16 L 15.5 15.5 Z" fill="#d4af6a" opacity="0.4"/><path d="M 744 12.8 L 744.5 15.5 L 747.2 16 L 744.5 16.5 L 744 19.2 L 743.5 16.5 L 740.8 16 L 743.5 15.5 Z" fill="#d4af6a" opacity="0.4"/><path d="M 16 413.8 L 16.5 416.5 L 19.2 417 L 16.5 417.5 L 16 420.2 L 15.5 417.5 L 12.8 417 L 15.5 416.5 Z" fill="#d4af6a" opacity="0.4"/><path d="M 744 413.8 L 744.5 416.5 L 747.2 417 L 744.5 417.5 L 744 420.2 L 743.5 417.5 L 740.8 417 L 743.5 416.5 Z" fill="#d4af6a" opacity="0.4"/>
  <text x="380" y="46" text-anchor="middle" font-family="Georgia, 'Times New Roman', serif" font-size="22" letter-spacing="0.4" fill="#efeaf8">Five Signals of Your 11th House at Work</text>
  <line x1="230" y1="67" x2="368" y2="67" stroke="url(#11thhouse1en-rule)" stroke-width="1"/>
  <line x1="392" y1="67" x2="530" y2="67" stroke="url(#11thhouse1en-rule)" stroke-width="1"/>
  <path d="M 380 62.0 L 380.8 66.2 L 385.0 67 L 380.8 67.8 L 380 72.0 L 379.2 67.8 L 375.0 67 L 379.2 66.2 Z" fill="#d4af6a" opacity="0.85"/>
  <line x1="76" y1="121" x2="76" y2="361" stroke="#d4af6a" stroke-opacity="0.28" stroke-width="1.5"/>
  <circle cx="76" cy="121" r="20.0" fill="url(#11thhouse1en-glow)" opacity="0.5"/>
    <circle cx="76" cy="121" r="15" fill="url(#11thhouse1en-foil)" stroke="#f6e6bf" stroke-opacity="0.5" stroke-width="0.8"/>
    <circle cx="76" cy="116.8" r="9.0" fill="#ffffff" opacity="0.10"/>
    <text x="76" y="125.5" text-anchor="middle" font-family="Georgia, 'Times New Roman', serif" font-size="13" font-weight="700" fill="#3a2c12">1</text>
  <text x="116" y="117.0" font-family="Georgia, 'Times New Roman', serif" font-size="22" letter-spacing="0.3" fill="#f3effb">The cause that pulls you</text>
  <text x="116" y="139.0" font-family="Helvetica, Arial, sans-serif" font-size="15.5" fill="#a59cc0">Aims you gravitate to, unpaid and unpushed</text>
  <circle cx="76" cy="181" r="20.0" fill="url(#11thhouse1en-glow)" opacity="0.5"/>
    <circle cx="76" cy="181" r="15" fill="url(#11thhouse1en-foil)" stroke="#f6e6bf" stroke-opacity="0.5" stroke-width="0.8"/>
    <circle cx="76" cy="176.8" r="9.0" fill="#ffffff" opacity="0.10"/>
    <text x="76" y="185.5" text-anchor="middle" font-family="Georgia, 'Times New Roman', serif" font-size="13" font-weight="700" fill="#3a2c12">2</text>
  <text x="116" y="177.0" font-family="Georgia, 'Times New Roman', serif" font-size="22" letter-spacing="0.3" fill="#f3effb">Your role in groups</text>
  <text x="116" y="199.0" font-family="Helvetica, Arial, sans-serif" font-size="15.5" fill="#a59cc0">Organizer, dissenter, mediator, or back row</text>
  <circle cx="76" cy="241" r="20.0" fill="url(#11thhouse1en-glow)" opacity="0.5"/>
    <circle cx="76" cy="241" r="15" fill="url(#11thhouse1en-foil)" stroke="#f6e6bf" stroke-opacity="0.5" stroke-width="0.8"/>
    <circle cx="76" cy="236.8" r="9.0" fill="#ffffff" opacity="0.10"/>
    <text x="76" y="245.5" text-anchor="middle" font-family="Georgia, 'Times New Roman', serif" font-size="13" font-weight="700" fill="#3a2c12">3</text>
  <text x="116" y="237.0" font-family="Georgia, 'Times New Roman', serif" font-size="22" letter-spacing="0.3" fill="#f3effb">The vision you defend</text>
  <text x="116" y="259.0" font-family="Helvetica, Arial, sans-serif" font-size="15.5" fill="#a59cc0">The world you keep saying should exist</text>
  <circle cx="76" cy="301" r="20.0" fill="url(#11thhouse1en-glow)" opacity="0.5"/>
    <circle cx="76" cy="301" r="15" fill="url(#11thhouse1en-foil)" stroke="#f6e6bf" stroke-opacity="0.5" stroke-width="0.8"/>
    <circle cx="76" cy="296.8" r="9.0" fill="#ffffff" opacity="0.10"/>
    <text x="76" y="305.5" text-anchor="middle" font-family="Georgia, 'Times New Roman', serif" font-size="13" font-weight="700" fill="#3a2c12">4</text>
  <text x="116" y="297.0" font-family="Georgia, 'Times New Roman', serif" font-size="22" letter-spacing="0.3" fill="#f3effb">Who shows up for you</text>
  <text x="116" y="319.0" font-family="Helvetica, Arial, sans-serif" font-size="15.5" fill="#a59cc0">Aligned allies who lift your work, even a few</text>
  <circle cx="76" cy="361" r="20.0" fill="url(#11thhouse1en-glow)" opacity="0.5"/>
    <circle cx="76" cy="361" r="15" fill="url(#11thhouse1en-foil)" stroke="#f6e6bf" stroke-opacity="0.5" stroke-width="0.8"/>
    <circle cx="76" cy="356.8" r="9.0" fill="#ffffff" opacity="0.10"/>
    <text x="76" y="365.5" text-anchor="middle" font-family="Georgia, 'Times New Roman', serif" font-size="13" font-weight="700" fill="#3a2c12">5</text>
  <text x="116" y="357.0" font-family="Georgia, 'Times New Roman', serif" font-size="22" letter-spacing="0.3" fill="#f3effb">The Saturn signal</text>
  <text x="116" y="379.0" font-family="Helvetica, Arial, sans-serif" font-size="15.5" fill="#a59cc0">Effortful belonging is itself data on how you join</text>
  <path d="M 202.22749999999988 404.4 L 202.6 406.6 L 204.8 407 L 202.6 407.4 L 202.22749999999988 409.6 L 201.8 407.4 L 199.6 407 L 201.8 406.6 Z" fill="#d4af6a" opacity="0.5"/>
  <text x="380" y="411" text-anchor="middle" font-family="Georgia, 'Times New Roman', serif" font-style="italic" font-size="11.5" fill="#7b738f">A self-reflection framework — tendencies, not predictions</text>
  <path d="M 557.7725000000002 404.4 L 558.2 406.6 L 560.4 407 L 558.2 407.4 L 557.7725000000002 409.6 L 557.4 407.4 L 555.2 407 L 557.4 406.6 Z" fill="#d4af6a" opacity="0.5"/>
</svg>
