<svg xmlns="http://www.w3.org/2000/svg" viewBox="0 0 760 373" role="img" aria-label="四个月宿及其守护行星">
  <defs>
    <linearGradient id="nakshatra2zh-panel" x1="0" y1="0" x2="0.4" y2="1">
      <stop offset="0" stop-color="#1a1433"/><stop offset="0.55" stop-color="#120e26"/><stop offset="1" stop-color="#09081a"/>
    </linearGradient>
    <radialGradient id="nakshatra2zh-foil" cx="0.42" cy="0.34" r="0.75">
      <stop offset="0" stop-color="#fbf0d2"/><stop offset="0.5" stop-color="#e8c882"/><stop offset="1" stop-color="#b8923f"/>
    </radialGradient>
    <radialGradient id="nakshatra2zh-glow" cx="0.5" cy="0.5" r="0.5">
      <stop offset="0" stop-color="#f6e6bf"/><stop offset="1" stop-color="#f6e6bf" stop-opacity="0"/>
    </radialGradient>
    <radialGradient id="nakshatra2zh-neb1" cx="0.5" cy="0.5" r="0.5">
      <stop offset="0" stop-color="#6f4bb0" stop-opacity="0.28"/><stop offset="1" stop-color="#6f4bb0" stop-opacity="0"/>
    </radialGradient>
    <radialGradient id="nakshatra2zh-neb2" cx="0.5" cy="0.5" r="0.5">
      <stop offset="0" stop-color="#d4af6a" stop-opacity="0.16"/><stop offset="1" stop-color="#d4af6a" stop-opacity="0"/>
    </radialGradient>
    <linearGradient id="nakshatra2zh-rule" x1="0" y1="0" x2="1" y2="0">
      <stop offset="0" stop-color="#d4af6a" stop-opacity="0"/><stop offset="0.5" stop-color="#d4af6a" stop-opacity="0.6"/><stop offset="1" stop-color="#d4af6a" stop-opacity="0"/>
    </linearGradient>
  </defs>
  <rect x="1.5" y="1.5" width="757" height="370" rx="22" fill="url(#nakshatra2zh-panel)"/>
  <ellipse cx="198" cy="90" rx="380" ry="127" fill="url(#nakshatra2zh-neb1)"/>
  <ellipse cx="623" cy="298" rx="334" ry="119" fill="url(#nakshatra2zh-neb2)"/>
  <circle cx="394.1" cy="19.4" r="0.96" fill="#cfc8ea" opacity="0.17"/><circle cx="682.8" cy="293.9" r="0.56" fill="#cfc8ea" opacity="0.45"/><circle cx="35.6" cy="19.6" r="1.34" fill="#cfc8ea" opacity="0.37"/><circle cx="186.2" cy="118.2" r="1.45" fill="#cfc8ea" opacity="0.29"/><circle cx="370.7" cy="154.3" r="0.65" fill="#cfc8ea" opacity="0.24"/><circle cx="352.7" cy="63.1" r="1.04" fill="#cfc8ea" opacity="0.53"/><circle cx="157.8" cy="216.4" r="1.64" fill="#cfc8ea" opacity="0.46"/><circle cx="77.1" cy="346.3" r="0.96" fill="#cfc8ea" opacity="0.17"/><circle cx="661.5" cy="58.3" r="1.02" fill="#cfc8ea" opacity="0.16"/><circle cx="200.2" cy="20.3" r="0.86" fill="#cfc8ea" opacity="0.41"/><circle cx="747.5" cy="82.4" r="1.35" fill="#cfc8ea" opacity="0.29"/><circle cx="281.5" cy="47.3" r="0.52" fill="#cfc8ea" opacity="0.29"/><circle cx="606.7" cy="54.1" r="0.87" fill="#cfc8ea" opacity="0.38"/><circle cx="235.1" cy="353.3" r="1.45" fill="#cfc8ea" opacity="0.33"/><circle cx="635.8" cy="83.4" r="0.65" fill="#cfc8ea" opacity="0.49"/><circle cx="319.9" cy="347.1" r="1.17" fill="#cfc8ea" opacity="0.16"/><circle cx="207.4" cy="288.5" r="0.55" fill="#cfc8ea" opacity="0.16"/><circle cx="347.0" cy="103.9" r="0.52" fill="#cfc8ea" opacity="0.46"/><circle cx="525.5" cy="202.8" r="1.42" fill="#cfc8ea" opacity="0.39"/><circle cx="559.9" cy="308.5" r="1.14" fill="#cfc8ea" opacity="0.22"/><circle cx="25.2" cy="234.9" r="0.57" fill="#cfc8ea" opacity="0.51"/><circle cx="645.2" cy="296.4" r="1.36" fill="#cfc8ea" opacity="0.32"/><circle cx="430.3" cy="242.1" r="1.27" fill="#cfc8ea" opacity="0.19"/><circle cx="403.3" cy="320.3" r="0.52" fill="#cfc8ea" opacity="0.21"/><circle cx="188.4" cy="191.3" r="1.29" fill="#cfc8ea" opacity="0.34"/><circle cx="407.2" cy="63.6" r="0.86" fill="#cfc8ea" opacity="0.17"/><circle cx="250.7" cy="91.9" r="1.14" fill="#cfc8ea" opacity="0.49"/><circle cx="471.9" cy="286.3" r="0.50" fill="#cfc8ea" opacity="0.35"/><circle cx="172.7" cy="46.8" r="1.04" fill="#cfc8ea" opacity="0.20"/><circle cx="570.3" cy="128.1" r="1.53" fill="#cfc8ea" opacity="0.28"/><circle cx="96.0" cy="349.3" r="1.66" fill="#cfc8ea" opacity="0.48"/><path d="M 200.1437647882849 33.0 L 200.7 36.1 L 203.9 36.71962628001347 L 200.7 37.3 L 200.1437647882849 40.5 L 199.5 37.3 L 196.4 36.71962628001347 L 199.5 36.1 Z" fill="#f6e6bf" opacity="0.6293223296292126"/><path d="M 310.9527356196195 226.4 L 311.4 228.8 L 313.8 229.20547021878883 L 311.4 229.7 L 310.9527356196195 232.0 L 310.5 229.7 L 308.2 229.20547021878883 L 310.5 228.8 Z" fill="#f6e6bf" opacity="0.5292395081371069"/><path d="M 169.12827155925333 60.6 L 169.6 62.9 L 171.9 63.32109118672088 L 169.6 63.8 L 169.12827155925333 66.0 L 168.7 63.8 L 166.4 63.32109118672088 L 168.7 62.9 Z" fill="#f6e6bf" opacity="0.6304300311021507"/><path d="M 303.17343008704484 267.9 L 303.6 270.2 L 305.9 270.652097904589 L 303.6 271.1 L 303.17343008704484 273.4 L 302.7 271.1 L 300.4 270.652097904589 L 302.7 270.2 Z" fill="#f6e6bf" opacity="0.5299369120970369"/><path d="M 524.2136746887118 352.6 L 524.8 355.9 L 528.1 356.4971918971278 L 524.8 357.1 L 524.2136746887118 360.4 L 523.6 357.1 L 520.4 356.4971918971278 L 523.6 355.9 Z" fill="#f6e6bf" opacity="0.6580852539278567"/>
  <rect x="1.5" y="1.5" width="757" height="370" rx="22" fill="none" stroke="#d4af6a" stroke-opacity="0.34" stroke-width="1.2"/>
  <rect x="7" y="7" width="746" height="359" rx="17" fill="none" stroke="#d4af6a" stroke-opacity="0.12" stroke-width="0.8"/>
  <path d="M 16 12.8 L 16.5 15.5 L 19.2 16 L 16.5 16.5 L 16 19.2 L 15.5 16.5 L 12.8 16 L 15.5 15.5 Z" fill="#d4af6a" opacity="0.4"/><path d="M 744 12.8 L 744.5 15.5 L 747.2 16 L 744.5 16.5 L 744 19.2 L 743.5 16.5 L 740.8 16 L 743.5 15.5 Z" fill="#d4af6a" opacity="0.4"/><path d="M 16 353.8 L 16.5 356.5 L 19.2 357 L 16.5 357.5 L 16 360.2 L 15.5 357.5 L 12.8 357 L 15.5 356.5 Z" fill="#d4af6a" opacity="0.4"/><path d="M 744 353.8 L 744.5 356.5 L 747.2 357 L 744.5 357.5 L 744 360.2 L 743.5 357.5 L 740.8 357 L 743.5 356.5 Z" fill="#d4af6a" opacity="0.4"/>
  <text x="380" y="46" text-anchor="middle" font-family="Georgia, 'Times New Roman', serif" font-size="22" letter-spacing="0.4" fill="#efeaf8">四个月宿及其守护行星</text>
  <line x1="230" y1="67" x2="368" y2="67" stroke="url(#nakshatra2zh-rule)" stroke-width="1"/>
  <line x1="392" y1="67" x2="530" y2="67" stroke="url(#nakshatra2zh-rule)" stroke-width="1"/>
  <path d="M 380 62.0 L 380.8 66.2 L 385.0 67 L 380.8 67.8 L 380 72.0 L 379.2 67.8 L 375.0 67 L 379.2 66.2 Z" fill="#d4af6a" opacity="0.85"/>
  <line x1="76" y1="121" x2="76" y2="301" stroke="#d4af6a" stroke-opacity="0.28" stroke-width="1.5"/>
  <circle cx="76" cy="121" r="20.0" fill="url(#nakshatra2zh-glow)" opacity="0.5"/>
    <circle cx="76" cy="121" r="15" fill="url(#nakshatra2zh-foil)" stroke="#f6e6bf" stroke-opacity="0.5" stroke-width="0.8"/>
    <circle cx="76" cy="116.8" r="9.0" fill="#ffffff" opacity="0.10"/>
    <text x="76" y="125.5" text-anchor="middle" font-family="Georgia, 'Times New Roman', serif" font-size="13" font-weight="700" fill="#3a2c12">1</text>
  <text x="116" y="117.0" font-family="Georgia, 'Times New Roman', serif" font-size="22" letter-spacing="0.3" fill="#f3effb">罗希尼（Rohini）</text>
  <text x="116" y="139.0" font-family="Helvetica, Arial, sans-serif" font-size="15.5" fill="#a59cc0">月亮主管——成长、感官丰盛与依恋</text>
  <circle cx="76" cy="181" r="20.0" fill="url(#nakshatra2zh-glow)" opacity="0.5"/>
    <circle cx="76" cy="181" r="15" fill="url(#nakshatra2zh-foil)" stroke="#f6e6bf" stroke-opacity="0.5" stroke-width="0.8"/>
    <circle cx="76" cy="176.8" r="9.0" fill="#ffffff" opacity="0.10"/>
    <text x="76" y="185.5" text-anchor="middle" font-family="Georgia, 'Times New Roman', serif" font-size="13" font-weight="700" fill="#3a2c12">2</text>
  <text x="116" y="177.0" font-family="Georgia, 'Times New Roman', serif" font-size="22" letter-spacing="0.3" fill="#f3effb">婆罗尼（Bharani）</text>
  <text x="116" y="199.0" font-family="Helvetica, Arial, sans-serif" font-size="15.5" fill="#a59cc0">金星主管——容纳、转化与临界</text>
  <circle cx="76" cy="241" r="20.0" fill="url(#nakshatra2zh-glow)" opacity="0.5"/>
    <circle cx="76" cy="241" r="15" fill="url(#nakshatra2zh-foil)" stroke="#f6e6bf" stroke-opacity="0.5" stroke-width="0.8"/>
    <circle cx="76" cy="236.8" r="9.0" fill="#ffffff" opacity="0.10"/>
    <text x="76" y="245.5" text-anchor="middle" font-family="Georgia, 'Times New Roman', serif" font-size="13" font-weight="700" fill="#3a2c12">3</text>
  <text x="116" y="237.0" font-family="Georgia, 'Times New Roman', serif" font-size="22" letter-spacing="0.3" fill="#f3effb">普沙（Pushya）</text>
  <text x="116" y="259.0" font-family="Helvetica, Arial, sans-serif" font-size="15.5" fill="#a59cc0">土星主管——滋养、耐心结构与责任</text>
  <circle cx="76" cy="301" r="20.0" fill="url(#nakshatra2zh-glow)" opacity="0.5"/>
    <circle cx="76" cy="301" r="15" fill="url(#nakshatra2zh-foil)" stroke="#f6e6bf" stroke-opacity="0.5" stroke-width="0.8"/>
    <circle cx="76" cy="296.8" r="9.0" fill="#ffffff" opacity="0.10"/>
    <text x="76" y="305.5" text-anchor="middle" font-family="Georgia, 'Times New Roman', serif" font-size="13" font-weight="700" fill="#3a2c12">4</text>
  <text x="116" y="297.0" font-family="Georgia, 'Times New Roman', serif" font-size="22" letter-spacing="0.3" fill="#f3effb">阿奴罗陀（Anuradha）</text>
  <text x="116" y="319.0" font-family="Helvetica, Arial, sans-serif" font-size="15.5" fill="#a59cc0">土星主管——奉献与压力下的忠诚</text>
  <path d="M 280.025 344.4 L 280.4 346.6 L 282.6 347 L 280.4 347.4 L 280.025 349.6 L 279.6 347.4 L 277.4 347 L 279.6 346.6 Z" fill="#d4af6a" opacity="0.5"/>
  <text x="380" y="351" text-anchor="middle" font-family="Georgia, 'Times New Roman', serif" font-style="italic" font-size="11.5" fill="#7b738f">自我反思框架，描述倾向而非预测</text>
  <path d="M 479.975 344.4 L 480.4 346.6 L 482.6 347 L 480.4 347.4 L 479.975 349.6 L 479.6 347.4 L 477.4 347 L 479.6 346.6 Z" fill="#d4af6a" opacity="0.5"/>
</svg>
