<svg xmlns="http://www.w3.org/2000/svg" viewBox="0 0 760 614" role="img" aria-label="Three Lenses on the Same Underworld">
  <defs>
    <linearGradient id="persephonegoddess1en-panel" x1="0" y1="0" x2="0.4" y2="1">
      <stop offset="0" stop-color="#1a1433"/><stop offset="0.55" stop-color="#120e26"/><stop offset="1" stop-color="#09081a"/>
    </linearGradient>
    <radialGradient id="persephonegoddess1en-foil" cx="0.42" cy="0.34" r="0.75">
      <stop offset="0" stop-color="#fbf0d2"/><stop offset="0.5" stop-color="#e8c882"/><stop offset="1" stop-color="#b8923f"/>
    </radialGradient>
    <radialGradient id="persephonegoddess1en-glow" cx="0.5" cy="0.5" r="0.5">
      <stop offset="0" stop-color="#f6e6bf"/><stop offset="1" stop-color="#f6e6bf" stop-opacity="0"/>
    </radialGradient>
    <radialGradient id="persephonegoddess1en-neb1" cx="0.5" cy="0.5" r="0.5">
      <stop offset="0" stop-color="#6f4bb0" stop-opacity="0.28"/><stop offset="1" stop-color="#6f4bb0" stop-opacity="0"/>
    </radialGradient>
    <radialGradient id="persephonegoddess1en-neb2" cx="0.5" cy="0.5" r="0.5">
      <stop offset="0" stop-color="#d4af6a" stop-opacity="0.16"/><stop offset="1" stop-color="#d4af6a" stop-opacity="0"/>
    </radialGradient>
    <linearGradient id="persephonegoddess1en-rule" x1="0" y1="0" x2="1" y2="0">
      <stop offset="0" stop-color="#d4af6a" stop-opacity="0"/><stop offset="0.5" stop-color="#d4af6a" stop-opacity="0.6"/><stop offset="1" stop-color="#d4af6a" stop-opacity="0"/>
    </linearGradient>
  </defs>
  <rect x="1.5" y="1.5" width="757" height="611" rx="22" fill="url(#persephonegoddess1en-panel)"/>
  <ellipse cx="198" cy="147" rx="380" ry="209" fill="url(#persephonegoddess1en-neb1)"/>
  <ellipse cx="623" cy="491" rx="334" ry="196" fill="url(#persephonegoddess1en-neb2)"/>
  <circle cx="628.8" cy="489.2" r="1.29" fill="#cfc8ea" opacity="0.53"/><circle cx="379.3" cy="438.1" r="0.48" fill="#cfc8ea" opacity="0.28"/><circle cx="471.1" cy="528.8" r="0.65" fill="#cfc8ea" opacity="0.16"/><circle cx="263.3" cy="87.3" r="1.11" fill="#cfc8ea" opacity="0.51"/><circle cx="317.4" cy="477.7" r="1.16" fill="#cfc8ea" opacity="0.37"/><circle cx="502.0" cy="578.2" r="0.47" fill="#cfc8ea" opacity="0.20"/><circle cx="695.0" cy="446.2" r="0.66" fill="#cfc8ea" opacity="0.47"/><circle cx="559.4" cy="337.7" r="1.14" fill="#cfc8ea" opacity="0.38"/><circle cx="275.3" cy="512.9" r="1.20" fill="#cfc8ea" opacity="0.33"/><circle cx="147.1" cy="369.2" r="0.47" fill="#cfc8ea" opacity="0.48"/><circle cx="609.0" cy="35.8" r="1.16" fill="#cfc8ea" opacity="0.45"/><circle cx="715.5" cy="577.6" r="1.24" fill="#cfc8ea" opacity="0.20"/><circle cx="682.4" cy="272.1" r="0.40" fill="#cfc8ea" opacity="0.42"/><circle cx="567.5" cy="469.5" r="1.65" fill="#cfc8ea" opacity="0.31"/><circle cx="745.7" cy="430.1" r="0.76" fill="#cfc8ea" opacity="0.46"/><circle cx="619.9" cy="479.7" r="0.53" fill="#cfc8ea" opacity="0.15"/><circle cx="309.4" cy="362.5" r="1.22" fill="#cfc8ea" opacity="0.53"/><circle cx="632.8" cy="382.7" r="0.44" fill="#cfc8ea" opacity="0.14"/><circle cx="130.1" cy="559.7" r="0.84" fill="#cfc8ea" opacity="0.16"/><circle cx="126.3" cy="165.8" r="1.66" fill="#cfc8ea" opacity="0.28"/><circle cx="159.6" cy="289.4" r="0.56" fill="#cfc8ea" opacity="0.42"/><circle cx="424.8" cy="140.4" r="0.95" fill="#cfc8ea" opacity="0.14"/><circle cx="297.6" cy="68.4" r="1.45" fill="#cfc8ea" opacity="0.30"/><circle cx="38.8" cy="501.4" r="1.38" fill="#cfc8ea" opacity="0.14"/><circle cx="264.0" cy="289.6" r="1.17" fill="#cfc8ea" opacity="0.25"/><circle cx="236.9" cy="400.6" r="0.84" fill="#cfc8ea" opacity="0.37"/><circle cx="630.5" cy="547.3" r="1.64" fill="#cfc8ea" opacity="0.29"/><circle cx="140.6" cy="593.0" r="1.69" fill="#cfc8ea" opacity="0.42"/><circle cx="358.6" cy="255.1" r="1.34" fill="#cfc8ea" opacity="0.33"/><circle cx="692.2" cy="343.1" r="0.55" fill="#cfc8ea" opacity="0.45"/><circle cx="617.9" cy="158.2" r="0.97" fill="#cfc8ea" opacity="0.36"/><circle cx="70.8" cy="500.3" r="0.68" fill="#cfc8ea" opacity="0.13"/><circle cx="636.4" cy="328.3" r="0.78" fill="#cfc8ea" opacity="0.50"/><circle cx="312.3" cy="562.0" r="1.63" fill="#cfc8ea" opacity="0.31"/><circle cx="540.4" cy="460.7" r="1.44" fill="#cfc8ea" opacity="0.35"/><circle cx="211.7" cy="208.8" r="0.47" fill="#cfc8ea" opacity="0.29"/><circle cx="424.9" cy="226.8" r="0.51" fill="#cfc8ea" opacity="0.40"/><circle cx="300.8" cy="12.9" r="0.45" fill="#cfc8ea" opacity="0.51"/><circle cx="362.9" cy="156.2" r="0.71" fill="#cfc8ea" opacity="0.29"/><circle cx="664.8" cy="223.1" r="1.09" fill="#cfc8ea" opacity="0.27"/><circle cx="181.9" cy="407.2" r="1.60" fill="#cfc8ea" opacity="0.37"/><circle cx="727.0" cy="409.0" r="1.06" fill="#cfc8ea" opacity="0.30"/><circle cx="478.0" cy="169.1" r="1.25" fill="#cfc8ea" opacity="0.40"/><circle cx="258.6" cy="430.4" r="1.31" fill="#cfc8ea" opacity="0.46"/><circle cx="611.3" cy="59.8" r="0.76" fill="#cfc8ea" opacity="0.41"/><circle cx="452.3" cy="339.5" r="0.65" fill="#cfc8ea" opacity="0.31"/><circle cx="36.0" cy="383.6" r="0.81" fill="#cfc8ea" opacity="0.52"/><circle cx="661.0" cy="528.1" r="0.84" fill="#cfc8ea" opacity="0.23"/><circle cx="244.6" cy="55.8" r="1.17" fill="#cfc8ea" opacity="0.33"/><circle cx="72.1" cy="468.8" r="0.71" fill="#cfc8ea" opacity="0.29"/><circle cx="554.4" cy="360.7" r="1.45" fill="#cfc8ea" opacity="0.45"/><circle cx="242.4" cy="143.3" r="0.74" fill="#cfc8ea" opacity="0.35"/><path d="M 376.6295345146209 236.1 L 377.1 238.7 L 379.7 239.21995066013187 L 377.1 239.7 L 376.6295345146209 242.3 L 376.1 239.7 L 373.5 239.21995066013187 L 376.1 238.7 Z" fill="#f6e6bf" opacity="0.7887486366555094"/><path d="M 732.4718864504248 567.5 L 732.9 569.5 L 734.9 569.9364110538736 L 732.9 570.3 L 732.4718864504248 572.4 L 732.1 570.3 L 730.0 569.9364110538736 L 732.1 569.5 Z" fill="#f6e6bf" opacity="0.539039156306535"/><path d="M 555.8642389345914 575.5 L 556.5 578.6 L 559.5 579.208337652497 L 556.5 579.8 L 555.8642389345914 582.9 L 555.3 579.8 L 552.2 579.208337652497 L 555.3 578.6 Z" fill="#f6e6bf" opacity="0.7887698914855719"/><path d="M 681.9875364098698 446.2 L 682.4 448.2 L 684.4 448.5899339662865 L 682.4 449.0 L 681.9875364098698 451.0 L 681.6 449.0 L 679.6 448.5899339662865 L 681.6 448.2 Z" fill="#f6e6bf" opacity="0.5186634364537894"/><path d="M 567.7842894811183 239.4 L 568.3 242.3 L 571.2 242.85074316617101 L 568.3 243.4 L 567.7842894811183 246.3 L 567.2 243.4 L 564.3 242.85074316617101 L 567.2 242.3 Z" fill="#f6e6bf" opacity="0.6932676875963807"/><path d="M 502.0 578.2 L 630.5 547.3 L 358.6 255.1 L 636.4 328.3 L 36.0 383.6" fill="none" stroke="#d4af6a" stroke-width="0.6" opacity="0.12"/>
  <rect x="1.5" y="1.5" width="757" height="611" rx="22" fill="none" stroke="#d4af6a" stroke-opacity="0.34" stroke-width="1.2"/>
  <rect x="7" y="7" width="746" height="600" rx="17" fill="none" stroke="#d4af6a" stroke-opacity="0.12" stroke-width="0.8"/>
  <path d="M 16 12.8 L 16.5 15.5 L 19.2 16 L 16.5 16.5 L 16 19.2 L 15.5 16.5 L 12.8 16 L 15.5 15.5 Z" fill="#d4af6a" opacity="0.4"/><path d="M 744 12.8 L 744.5 15.5 L 747.2 16 L 744.5 16.5 L 744 19.2 L 743.5 16.5 L 740.8 16 L 743.5 15.5 Z" fill="#d4af6a" opacity="0.4"/><path d="M 16 594.8 L 16.5 597.5 L 19.2 598 L 16.5 598.5 L 16 601.2 L 15.5 598.5 L 12.8 598 L 15.5 597.5 Z" fill="#d4af6a" opacity="0.4"/><path d="M 744 594.8 L 744.5 597.5 L 747.2 598 L 744.5 598.5 L 744 601.2 L 743.5 598.5 L 740.8 598 L 743.5 597.5 Z" fill="#d4af6a" opacity="0.4"/>
  <text x="380" y="46" text-anchor="middle" font-family="Georgia, 'Times New Roman', serif" font-size="22" letter-spacing="0.4" fill="#efeaf8">Three Lenses on the Same Underworld</text>
  <line x1="230" y1="67" x2="368" y2="67" stroke="url(#persephonegoddess1en-rule)" stroke-width="1"/>
  <line x1="392" y1="67" x2="530" y2="67" stroke="url(#persephonegoddess1en-rule)" stroke-width="1"/>
  <path d="M 380 62.0 L 380.8 66.2 L 385.0 67 L 380.8 67.8 L 380 72.0 L 379.2 67.8 L 375.0 67 L 379.2 66.2 Z" fill="#d4af6a" opacity="0.85"/>

  <rect x="46" y="99" width="668" height="143.0" rx="14" fill="#1d1740" fill-opacity="0.5" stroke="#d4af6a" stroke-opacity="0.22" stroke-width="0.9"/>
  <rect x="46" y="99" width="668" height="3.5" rx="1.8" fill="#d4af6a" fill-opacity="0.6"/>
  <path d="M 380 97.1 L 380.5 100.0 L 383.4 100.5 L 380.5 101.0 L 380 103.9 L 379.5 101.0 L 376.6 100.5 L 379.5 100.0 Z" fill="#f6e6bf" opacity="0.7"/>
  <text x="380" y="128.0" text-anchor="middle" font-family="Georgia, 'Times New Roman', serif" font-size="21" font-weight="700" letter-spacing="0.3" fill="#f3effb">Demeter lens</text>
  <path d="M 70 157.8 L 70.5 160.5 L 73.2 161 L 70.5 161.5 L 70 164.2 L 69.5 161.5 L 66.8 161 L 69.5 160.5 Z" fill="#d4af6a" opacity="0.8"/>
  <text x="84" y="166.0" font-family="Helvetica, Arial, sans-serif" font-size="16" fill="#a59cc0">Centers the one left behind</text>
  <path d="M 70 186.8 L 70.5 189.5 L 73.2 190 L 70.5 190.5 L 70 193.2 L 69.5 190.5 L 66.8 190 L 69.5 189.5 Z" fill="#d4af6a" opacity="0.8"/>
  <text x="84" y="195.0" font-family="Helvetica, Arial, sans-serif" font-size="16" fill="#a59cc0">Grief of the barren surface</text>
  <path d="M 70 215.8 L 70.5 218.5 L 73.2 219 L 70.5 219.5 L 70 222.2 L 69.5 219.5 L 66.8 219 L 69.5 218.5 Z" fill="#d4af6a" opacity="0.8"/>
  <text x="84" y="224.0" font-family="Helvetica, Arial, sans-serif" font-size="16" fill="#a59cc0">Loses the change underground</text>
  <path d="M 380 250.5 L 380.7 254.3 L 384.5 255 L 380.7 255.7 L 380 259.5 L 379.3 255.7 L 375.5 255 L 379.3 254.3 Z" fill="#d4af6a" opacity="0.65"/>
  <rect x="46" y="268" width="668" height="143.0" rx="14" fill="#1d1740" fill-opacity="0.5" stroke="#d4af6a" stroke-opacity="0.22" stroke-width="0.9"/>
  <rect x="46" y="268" width="668" height="3.5" rx="1.8" fill="#d4af6a" fill-opacity="0.6"/>
  <path d="M 380 266.1 L 380.5 269.0 L 383.4 269.5 L 380.5 270.0 L 380 272.9 L 379.5 270.0 L 376.6 269.5 L 379.5 269.0 Z" fill="#f6e6bf" opacity="0.7"/>
  <text x="380" y="297.0" text-anchor="middle" font-family="Georgia, 'Times New Roman', serif" font-size="21" font-weight="700" letter-spacing="0.3" fill="#f3effb">Pluto lens</text>
  <path d="M 70 326.8 L 70.5 329.5 L 73.2 330 L 70.5 330.5 L 70 333.2 L 69.5 330.5 L 66.8 330 L 69.5 329.5 Z" fill="#d4af6a" opacity="0.8"/>
  <text x="84" y="335.0" font-family="Helvetica, Arial, sans-serif" font-size="16" fill="#a59cc0">Raw force of upheaval</text>
  <path d="M 70 355.8 L 70.5 358.5 L 73.2 359 L 70.5 359.5 L 70 362.2 L 69.5 359.5 L 66.8 359 L 69.5 358.5 Z" fill="#d4af6a" opacity="0.8"/>
  <text x="84" y="364.0" font-family="Helvetica, Arial, sans-serif" font-size="16" fill="#a59cc0">The volcano, no negotiation</text>
  <path d="M 70 384.8 L 70.5 387.5 L 73.2 388 L 70.5 388.5 L 70 391.2 L 69.5 388.5 L 66.8 388 L 69.5 387.5 Z" fill="#d4af6a" opacity="0.8"/>
  <text x="84" y="393.0" font-family="Helvetica, Arial, sans-serif" font-size="16" fill="#a59cc0">Loses the human arc of adapting</text>
  <path d="M 380 419.5 L 380.7 423.3 L 384.5 424 L 380.7 424.7 L 380 428.5 L 379.3 424.7 L 375.5 424 L 379.3 423.3 Z" fill="#d4af6a" opacity="0.65"/>
  <rect x="46" y="437" width="668" height="143.0" rx="14" fill="#1d1740" fill-opacity="0.5" stroke="#d4af6a" stroke-opacity="0.22" stroke-width="0.9"/>
  <rect x="46" y="437" width="668" height="3.5" rx="1.8" fill="#d4af6a" fill-opacity="0.6"/>
  <path d="M 380 435.1 L 380.5 438.0 L 383.4 438.5 L 380.5 439.0 L 380 441.9 L 379.5 439.0 L 376.6 438.5 L 379.5 438.0 Z" fill="#f6e6bf" opacity="0.7"/>
  <text x="380" y="466.0" text-anchor="middle" font-family="Georgia, 'Times New Roman', serif" font-size="21" font-weight="700" letter-spacing="0.3" fill="#f3effb">Persephone lens</text>
  <path d="M 70 495.8 L 70.5 498.5 L 73.2 499 L 70.5 499.5 L 70 502.2 L 69.5 499.5 L 66.8 499 L 69.5 498.5 Z" fill="#d4af6a" opacity="0.8"/>
  <text x="84" y="504.0" font-family="Helvetica, Arial, sans-serif" font-size="16" fill="#a59cc0">Lived experience of being taken</text>
  <path d="M 70 524.8 L 70.5 527.5 L 73.2 528 L 70.5 528.5 L 70 531.2 L 69.5 528.5 L 66.8 528 L 69.5 527.5 Z" fill="#d4af6a" opacity="0.8"/>
  <text x="84" y="533.0" font-family="Helvetica, Arial, sans-serif" font-size="16" fill="#a59cc0">Becoming sovereign of the dark</text>
  <path d="M 70 553.8 L 70.5 556.5 L 73.2 557 L 70.5 557.5 L 70 560.2 L 69.5 557.5 L 66.8 557 L 69.5 556.5 Z" fill="#d4af6a" opacity="0.8"/>
  <text x="84" y="562.0" font-family="Helvetica, Arial, sans-serif" font-size="16" fill="#a59cc0">Holds maiden and queen at once</text>
  <path d="M 202.22749999999988 585.4 L 202.6 587.6 L 204.8 588 L 202.6 588.4 L 202.22749999999988 590.6 L 201.8 588.4 L 199.6 588 L 201.8 587.6 Z" fill="#d4af6a" opacity="0.5"/>
  <text x="380" y="592" text-anchor="middle" font-family="Georgia, 'Times New Roman', serif" font-style="italic" font-size="11.5" fill="#7b738f">A self-reflection framework — tendencies, not predictions</text>
  <path d="M 557.7725000000002 585.4 L 558.2 587.6 L 560.4 588 L 558.2 588.4 L 557.7725000000002 590.6 L 557.4 588.4 L 555.2 588 L 557.4 587.6 Z" fill="#d4af6a" opacity="0.5"/>
</svg>
