<svg xmlns="http://www.w3.org/2000/svg" viewBox="0 0 760 469" role="img" aria-label="Five Standout Patterns in Griezmann's Birth Chart">
  <defs>
    <linearGradient id="antoinegriezmannbirthchart0en-panel" x1="0" y1="0" x2="0.4" y2="1">
      <stop offset="0" stop-color="#1a1433"/><stop offset="0.55" stop-color="#120e26"/><stop offset="1" stop-color="#09081a"/>
    </linearGradient>
    <radialGradient id="antoinegriezmannbirthchart0en-foil" cx="0.42" cy="0.34" r="0.75">
      <stop offset="0" stop-color="#fbf0d2"/><stop offset="0.5" stop-color="#e8c882"/><stop offset="1" stop-color="#b8923f"/>
    </radialGradient>
    <radialGradient id="antoinegriezmannbirthchart0en-glow" cx="0.5" cy="0.5" r="0.5">
      <stop offset="0" stop-color="#f6e6bf"/><stop offset="1" stop-color="#f6e6bf" stop-opacity="0"/>
    </radialGradient>
    <radialGradient id="antoinegriezmannbirthchart0en-neb1" cx="0.5" cy="0.5" r="0.5">
      <stop offset="0" stop-color="#6f4bb0" stop-opacity="0.28"/><stop offset="1" stop-color="#6f4bb0" stop-opacity="0"/>
    </radialGradient>
    <radialGradient id="antoinegriezmannbirthchart0en-neb2" cx="0.5" cy="0.5" r="0.5">
      <stop offset="0" stop-color="#d4af6a" stop-opacity="0.16"/><stop offset="1" stop-color="#d4af6a" stop-opacity="0"/>
    </radialGradient>
    <linearGradient id="antoinegriezmannbirthchart0en-rule" x1="0" y1="0" x2="1" y2="0">
      <stop offset="0" stop-color="#d4af6a" stop-opacity="0"/><stop offset="0.5" stop-color="#d4af6a" stop-opacity="0.6"/><stop offset="1" stop-color="#d4af6a" stop-opacity="0"/>
    </linearGradient>
  </defs>
  <rect x="1.5" y="1.5" width="757" height="466" rx="22" fill="url(#antoinegriezmannbirthchart0en-panel)"/>
  <ellipse cx="198" cy="113" rx="380" ry="159" fill="url(#antoinegriezmannbirthchart0en-neb1)"/>
  <ellipse cx="623" cy="375" rx="334" ry="150" fill="url(#antoinegriezmannbirthchart0en-neb2)"/>
  <circle cx="580.3" cy="172.2" r="0.91" fill="#cfc8ea" opacity="0.26"/><circle cx="408.5" cy="414.5" r="1.57" fill="#cfc8ea" opacity="0.43"/><circle cx="401.1" cy="170.0" r="1.10" fill="#cfc8ea" opacity="0.42"/><circle cx="266.3" cy="124.8" r="0.65" fill="#cfc8ea" opacity="0.33"/><circle cx="568.9" cy="193.6" r="1.15" fill="#cfc8ea" opacity="0.36"/><circle cx="107.2" cy="393.2" r="0.58" fill="#cfc8ea" opacity="0.16"/><circle cx="502.4" cy="139.6" r="1.69" fill="#cfc8ea" opacity="0.53"/><circle cx="572.4" cy="306.2" r="1.67" fill="#cfc8ea" opacity="0.17"/><circle cx="601.5" cy="46.3" r="0.96" fill="#cfc8ea" opacity="0.16"/><circle cx="194.1" cy="99.3" r="0.88" fill="#cfc8ea" opacity="0.14"/><circle cx="609.3" cy="158.4" r="0.81" fill="#cfc8ea" opacity="0.33"/><circle cx="544.4" cy="76.1" r="1.06" fill="#cfc8ea" opacity="0.24"/><circle cx="507.5" cy="137.6" r="1.01" fill="#cfc8ea" opacity="0.23"/><circle cx="141.8" cy="311.8" r="1.02" fill="#cfc8ea" opacity="0.15"/><circle cx="108.8" cy="144.9" r="1.08" fill="#cfc8ea" opacity="0.42"/><circle cx="38.0" cy="282.4" r="0.73" fill="#cfc8ea" opacity="0.44"/><circle cx="70.2" cy="46.4" r="0.91" fill="#cfc8ea" opacity="0.24"/><circle cx="187.2" cy="453.9" r="1.34" fill="#cfc8ea" opacity="0.49"/><circle cx="396.9" cy="90.5" r="1.31" fill="#cfc8ea" opacity="0.36"/><circle cx="362.4" cy="182.1" r="0.46" fill="#cfc8ea" opacity="0.40"/><circle cx="465.1" cy="188.3" r="0.62" fill="#cfc8ea" opacity="0.46"/><circle cx="460.0" cy="188.7" r="1.59" fill="#cfc8ea" opacity="0.45"/><circle cx="152.1" cy="337.2" r="0.75" fill="#cfc8ea" opacity="0.32"/><circle cx="590.2" cy="356.6" r="1.12" fill="#cfc8ea" opacity="0.34"/><circle cx="157.7" cy="213.0" r="0.64" fill="#cfc8ea" opacity="0.33"/><circle cx="147.4" cy="179.1" r="1.37" fill="#cfc8ea" opacity="0.49"/><circle cx="509.7" cy="231.4" r="0.99" fill="#cfc8ea" opacity="0.45"/><circle cx="395.6" cy="192.1" r="1.13" fill="#cfc8ea" opacity="0.21"/><circle cx="179.0" cy="120.7" r="0.87" fill="#cfc8ea" opacity="0.19"/><circle cx="155.0" cy="295.0" r="1.67" fill="#cfc8ea" opacity="0.35"/><circle cx="549.8" cy="84.6" r="1.32" fill="#cfc8ea" opacity="0.20"/><circle cx="91.9" cy="277.5" r="0.84" fill="#cfc8ea" opacity="0.46"/><circle cx="18.6" cy="405.9" r="0.76" fill="#cfc8ea" opacity="0.35"/><circle cx="398.1" cy="335.9" r="1.27" fill="#cfc8ea" opacity="0.24"/><circle cx="500.4" cy="356.5" r="1.21" fill="#cfc8ea" opacity="0.21"/><circle cx="503.7" cy="160.3" r="1.63" fill="#cfc8ea" opacity="0.12"/><circle cx="158.9" cy="316.8" r="1.47" fill="#cfc8ea" opacity="0.38"/><circle cx="704.7" cy="439.5" r="1.27" fill="#cfc8ea" opacity="0.27"/><circle cx="61.9" cy="98.8" r="1.27" fill="#cfc8ea" opacity="0.44"/><circle cx="338.0" cy="255.5" r="0.81" fill="#cfc8ea" opacity="0.18"/><path d="M 220.37182188406587 103.8 L 221.0 107.1 L 224.2 107.69981456664391 L 221.0 108.3 L 220.37182188406587 111.6 L 219.8 108.3 L 216.5 107.69981456664391 L 219.8 107.1 Z" fill="#f6e6bf" opacity="0.6674354945542291"/><path d="M 106.74100190028548 310.1 L 107.3 312.8 L 110.0 313.2775969824288 L 107.3 313.8 L 106.74100190028548 316.5 L 106.2 313.8 L 103.5 313.2775969824288 L 106.2 312.8 Z" fill="#f6e6bf" opacity="0.5288446843856945"/><path d="M 426.3432426340878 262.2 L 426.7 264.3 L 428.8 264.66911847447045 L 426.7 265.1 L 426.3432426340878 267.2 L 425.9 265.1 L 423.9 264.66911847447045 L 425.9 264.3 Z" fill="#f6e6bf" opacity="0.7391547690378502"/><path d="M 410.9475698880851 168.8 L 411.3 170.9 L 413.4 171.27310860552825 L 411.3 171.7 L 410.9475698880851 173.8 L 410.5 171.7 L 408.4 171.27310860552825 L 410.5 170.9 Z" fill="#f6e6bf" opacity="0.7726099377730862"/><path d="M 568.0475883223116 189.2 L 568.7 192.6 L 572.0 193.19240231555887 L 568.7 193.8 L 568.0475883223116 197.1 L 567.4 193.8 L 564.1 193.19240231555887 L 567.4 192.6 Z" fill="#f6e6bf" opacity="0.5286813543410972"/><path d="M 107.2 393.2 L 502.4 139.6 L 465.1 188.3 L 157.7 213.0 L 61.9 98.8" fill="none" stroke="#d4af6a" stroke-width="0.6" opacity="0.12"/>
  <rect x="1.5" y="1.5" width="757" height="466" rx="22" fill="none" stroke="#d4af6a" stroke-opacity="0.34" stroke-width="1.2"/>
  <rect x="7" y="7" width="746" height="455" rx="17" fill="none" stroke="#d4af6a" stroke-opacity="0.12" stroke-width="0.8"/>
  <path d="M 16 12.8 L 16.5 15.5 L 19.2 16 L 16.5 16.5 L 16 19.2 L 15.5 16.5 L 12.8 16 L 15.5 15.5 Z" fill="#d4af6a" opacity="0.4"/><path d="M 744 12.8 L 744.5 15.5 L 747.2 16 L 744.5 16.5 L 744 19.2 L 743.5 16.5 L 740.8 16 L 743.5 15.5 Z" fill="#d4af6a" opacity="0.4"/><path d="M 16 449.8 L 16.5 452.5 L 19.2 453 L 16.5 453.5 L 16 456.2 L 15.5 453.5 L 12.8 453 L 15.5 452.5 Z" fill="#d4af6a" opacity="0.4"/><path d="M 744 449.8 L 744.5 452.5 L 747.2 453 L 744.5 453.5 L 744 456.2 L 743.5 453.5 L 740.8 453 L 743.5 452.5 Z" fill="#d4af6a" opacity="0.4"/>
  <text x="380" y="46" text-anchor="middle" font-family="Georgia, 'Times New Roman', serif" font-size="22" letter-spacing="0.4" fill="#efeaf8">Five Standout Patterns in Griezmann's Birth Chart</text>
  <line x1="230" y1="67" x2="368" y2="67" stroke="url(#antoinegriezmannbirthchart0en-rule)" stroke-width="1"/>
  <line x1="392" y1="67" x2="530" y2="67" stroke="url(#antoinegriezmannbirthchart0en-rule)" stroke-width="1"/>
  <path d="M 380 62.0 L 380.8 66.2 L 385.0 67 L 380.8 67.8 L 380 72.0 L 379.2 67.8 L 375.0 67 L 379.2 66.2 Z" fill="#d4af6a" opacity="0.85"/>
  <line x1="76" y1="121" x2="76" y2="379" stroke="#d4af6a" stroke-opacity="0.28" stroke-width="1.5"/>
  <circle cx="76" cy="121" r="20.0" fill="url(#antoinegriezmannbirthchart0en-glow)" opacity="0.5"/>
    <circle cx="76" cy="121" r="15" fill="url(#antoinegriezmannbirthchart0en-foil)" stroke="#f6e6bf" stroke-opacity="0.5" stroke-width="0.8"/>
    <circle cx="76" cy="116.8" r="9.0" fill="#ffffff" opacity="0.10"/>
    <text x="76" y="125.5" text-anchor="middle" font-family="Georgia, 'Times New Roman', serif" font-size="13" font-weight="700" fill="#3a2c12">1</text>
  <text x="116" y="117.0" font-family="Georgia, 'Times New Roman', serif" font-size="22" letter-spacing="0.3" fill="#f3effb">The Aries Opening</text>
  <text x="116" y="139.0" font-family="Helvetica, Arial, sans-serif" font-size="15.5" fill="#a59cc0">Sun and Mercury in Aries — a bias toward initiative and plain, direct speech</text>
  <circle cx="76" cy="181" r="20.0" fill="url(#antoinegriezmannbirthchart0en-glow)" opacity="0.5"/>
    <circle cx="76" cy="181" r="15" fill="url(#antoinegriezmannbirthchart0en-foil)" stroke="#f6e6bf" stroke-opacity="0.5" stroke-width="0.8"/>
    <circle cx="76" cy="176.8" r="9.0" fill="#ffffff" opacity="0.10"/>
    <text x="76" y="185.5" text-anchor="middle" font-family="Georgia, 'Times New Roman', serif" font-size="13" font-weight="700" fill="#3a2c12">2</text>
  <text x="116" y="177.0" font-family="Georgia, 'Times New Roman', serif" font-size="22" letter-spacing="0.3" fill="#f3effb">The Gemini Engine</text>
  <text x="116" y="199.0" font-family="Helvetica, Arial, sans-serif" font-size="15.5" fill="#a59cc0">Moon and Mars in Gemini — emotional restlessness and darting, quick energy</text>
  <circle cx="76" cy="241" r="20.0" fill="url(#antoinegriezmannbirthchart0en-glow)" opacity="0.5"/>
    <circle cx="76" cy="241" r="15" fill="url(#antoinegriezmannbirthchart0en-foil)" stroke="#f6e6bf" stroke-opacity="0.5" stroke-width="0.8"/>
    <circle cx="76" cy="236.8" r="9.0" fill="#ffffff" opacity="0.10"/>
    <text x="76" y="245.5" text-anchor="middle" font-family="Georgia, 'Times New Roman', serif" font-size="13" font-weight="700" fill="#3a2c12">3</text>
  <text x="116" y="237.0" font-family="Georgia, 'Times New Roman', serif" font-size="22" letter-spacing="0.3" fill="#f3effb">The Taurus Anchor</text>
  <text x="116" y="259.0" font-family="Helvetica, Arial, sans-serif" font-size="15.5" fill="#a59cc0">Venus and Chiron in Taurus — steady values and a slow-to-shift sense of safety</text>
  <circle cx="76" cy="301" r="20.0" fill="url(#antoinegriezmannbirthchart0en-glow)" opacity="0.5"/>
    <circle cx="76" cy="301" r="15" fill="url(#antoinegriezmannbirthchart0en-foil)" stroke="#f6e6bf" stroke-opacity="0.5" stroke-width="0.8"/>
    <circle cx="76" cy="296.8" r="9.0" fill="#ffffff" opacity="0.10"/>
    <text x="76" y="305.5" text-anchor="middle" font-family="Georgia, 'Times New Roman', serif" font-size="13" font-weight="700" fill="#3a2c12">4</text>
  <text x="116" y="297.0" font-family="Georgia, 'Times New Roman', serif" font-size="22" letter-spacing="0.3" fill="#f3effb">The Capricorn Cluster</text>
  <text x="116" y="319.0" font-family="Helvetica, Arial, sans-serif" font-size="15.5" fill="#a59cc0">Uranus, Neptune, and North Node in Capricorn — generational pull toward</text>
  <text x="116" y="337.0" font-family="Helvetica, Arial, sans-serif" font-size="15.5" fill="#a59cc0">building lasting structures</text>
  <circle cx="76" cy="379" r="20.0" fill="url(#antoinegriezmannbirthchart0en-glow)" opacity="0.5"/>
    <circle cx="76" cy="379" r="15" fill="url(#antoinegriezmannbirthchart0en-foil)" stroke="#f6e6bf" stroke-opacity="0.5" stroke-width="0.8"/>
    <circle cx="76" cy="374.8" r="9.0" fill="#ffffff" opacity="0.10"/>
    <text x="76" y="383.5" text-anchor="middle" font-family="Georgia, 'Times New Roman', serif" font-size="13" font-weight="700" fill="#3a2c12">5</text>
  <text x="116" y="375.0" font-family="Georgia, 'Times New Roman', serif" font-size="22" letter-spacing="0.3" fill="#f3effb">Relationship-Facing Aspects</text>
  <text x="116" y="397.0" font-family="Helvetica, Arial, sans-serif" font-size="15.5" fill="#a59cc0">How placements angle toward each other refines the read; angles involving the</text>
  <text x="116" y="415.0" font-family="Helvetica, Arial, sans-serif" font-size="15.5" fill="#a59cc0">Ascendant stay off-limits without a birth time</text>
  <path d="M 202.22749999999988 440.4 L 202.6 442.6 L 204.8 443 L 202.6 443.4 L 202.22749999999988 445.6 L 201.8 443.4 L 199.6 443 L 201.8 442.6 Z" fill="#d4af6a" opacity="0.5"/>
  <text x="380" y="447" text-anchor="middle" font-family="Georgia, 'Times New Roman', serif" font-style="italic" font-size="11.5" fill="#7b738f">A self-reflection framework — tendencies, not predictions</text>
  <path d="M 557.7725000000002 440.4 L 558.2 442.6 L 560.4 443 L 558.2 443.4 L 557.7725000000002 445.6 L 557.4 443.4 L 555.2 443 L 557.4 442.6 Z" fill="#d4af6a" opacity="0.5"/>
</svg>
