<svg xmlns="http://www.w3.org/2000/svg" viewBox="0 0 760 433" role="img" aria-label="如何在星盘中解读 Punarvasu">
  <defs>
    <linearGradient id="punarvasunakshatra1zh-panel" x1="0" y1="0" x2="0.4" y2="1">
      <stop offset="0" stop-color="#1a1433"/><stop offset="0.55" stop-color="#120e26"/><stop offset="1" stop-color="#09081a"/>
    </linearGradient>
    <radialGradient id="punarvasunakshatra1zh-foil" cx="0.42" cy="0.34" r="0.75">
      <stop offset="0" stop-color="#fbf0d2"/><stop offset="0.5" stop-color="#e8c882"/><stop offset="1" stop-color="#b8923f"/>
    </radialGradient>
    <radialGradient id="punarvasunakshatra1zh-glow" cx="0.5" cy="0.5" r="0.5">
      <stop offset="0" stop-color="#f6e6bf"/><stop offset="1" stop-color="#f6e6bf" stop-opacity="0"/>
    </radialGradient>
    <radialGradient id="punarvasunakshatra1zh-neb1" cx="0.5" cy="0.5" r="0.5">
      <stop offset="0" stop-color="#6f4bb0" stop-opacity="0.28"/><stop offset="1" stop-color="#6f4bb0" stop-opacity="0"/>
    </radialGradient>
    <radialGradient id="punarvasunakshatra1zh-neb2" cx="0.5" cy="0.5" r="0.5">
      <stop offset="0" stop-color="#d4af6a" stop-opacity="0.16"/><stop offset="1" stop-color="#d4af6a" stop-opacity="0"/>
    </radialGradient>
    <linearGradient id="punarvasunakshatra1zh-rule" x1="0" y1="0" x2="1" y2="0">
      <stop offset="0" stop-color="#d4af6a" stop-opacity="0"/><stop offset="0.5" stop-color="#d4af6a" stop-opacity="0.6"/><stop offset="1" stop-color="#d4af6a" stop-opacity="0"/>
    </linearGradient>
  </defs>
  <rect x="1.5" y="1.5" width="757" height="430" rx="22" fill="url(#punarvasunakshatra1zh-panel)"/>
  <ellipse cx="198" cy="104" rx="380" ry="147" fill="url(#punarvasunakshatra1zh-neb1)"/>
  <ellipse cx="623" cy="346" rx="334" ry="139" fill="url(#punarvasunakshatra1zh-neb2)"/>
  <circle cx="691.2" cy="59.7" r="0.99" fill="#cfc8ea" opacity="0.21"/><circle cx="18.5" cy="50.6" r="1.25" fill="#cfc8ea" opacity="0.36"/><circle cx="107.3" cy="62.9" r="0.58" fill="#cfc8ea" opacity="0.27"/><circle cx="744.2" cy="327.6" r="1.68" fill="#cfc8ea" opacity="0.20"/><circle cx="99.5" cy="319.1" r="1.69" fill="#cfc8ea" opacity="0.46"/><circle cx="659.9" cy="199.1" r="0.92" fill="#cfc8ea" opacity="0.27"/><circle cx="294.9" cy="338.9" r="1.20" fill="#cfc8ea" opacity="0.25"/><circle cx="192.1" cy="96.1" r="1.49" fill="#cfc8ea" opacity="0.24"/><circle cx="702.2" cy="279.5" r="0.95" fill="#cfc8ea" opacity="0.35"/><circle cx="29.1" cy="420.4" r="0.74" fill="#cfc8ea" opacity="0.31"/><circle cx="39.9" cy="174.0" r="0.44" fill="#cfc8ea" opacity="0.19"/><circle cx="333.2" cy="137.4" r="1.36" fill="#cfc8ea" opacity="0.16"/><circle cx="741.3" cy="227.2" r="0.70" fill="#cfc8ea" opacity="0.40"/><circle cx="359.7" cy="39.5" r="1.38" fill="#cfc8ea" opacity="0.29"/><circle cx="606.7" cy="196.5" r="0.46" fill="#cfc8ea" opacity="0.27"/><circle cx="196.9" cy="222.2" r="1.41" fill="#cfc8ea" opacity="0.46"/><circle cx="244.4" cy="382.4" r="1.17" fill="#cfc8ea" opacity="0.37"/><circle cx="664.6" cy="239.4" r="0.43" fill="#cfc8ea" opacity="0.18"/><circle cx="223.6" cy="278.2" r="0.95" fill="#cfc8ea" opacity="0.23"/><circle cx="17.8" cy="23.4" r="0.60" fill="#cfc8ea" opacity="0.44"/><circle cx="97.4" cy="268.8" r="0.91" fill="#cfc8ea" opacity="0.16"/><circle cx="362.7" cy="184.0" r="1.29" fill="#cfc8ea" opacity="0.23"/><circle cx="590.0" cy="163.5" r="1.31" fill="#cfc8ea" opacity="0.37"/><circle cx="70.9" cy="200.3" r="0.91" fill="#cfc8ea" opacity="0.19"/><circle cx="189.0" cy="175.2" r="0.51" fill="#cfc8ea" opacity="0.51"/><circle cx="513.6" cy="201.5" r="1.19" fill="#cfc8ea" opacity="0.49"/><circle cx="19.6" cy="274.6" r="0.46" fill="#cfc8ea" opacity="0.12"/><circle cx="388.0" cy="231.4" r="1.53" fill="#cfc8ea" opacity="0.41"/><circle cx="687.3" cy="85.6" r="1.26" fill="#cfc8ea" opacity="0.21"/><circle cx="419.0" cy="327.1" r="1.30" fill="#cfc8ea" opacity="0.52"/><circle cx="184.3" cy="372.8" r="0.93" fill="#cfc8ea" opacity="0.31"/><circle cx="307.4" cy="160.7" r="0.56" fill="#cfc8ea" opacity="0.46"/><circle cx="386.2" cy="150.3" r="0.58" fill="#cfc8ea" opacity="0.23"/><circle cx="43.4" cy="192.5" r="1.65" fill="#cfc8ea" opacity="0.14"/><circle cx="621.6" cy="403.1" r="1.14" fill="#cfc8ea" opacity="0.53"/><circle cx="675.4" cy="25.7" r="0.46" fill="#cfc8ea" opacity="0.34"/><circle cx="232.1" cy="326.6" r="0.48" fill="#cfc8ea" opacity="0.21"/><path d="M 491.70303096435964 215.2 L 492.2 217.9 L 494.9 218.43233675789088 L 492.2 218.9 L 491.70303096435964 221.7 L 491.2 218.9 L 488.5 218.43233675789088 L 491.2 217.9 Z" fill="#f6e6bf" opacity="0.6452235589269548"/><path d="M 52.99036286585033 137.6 L 53.5 140.1 L 56.0 140.62189466878772 L 53.5 141.1 L 52.99036286585033 143.7 L 52.5 141.1 L 49.9 140.62189466878772 L 52.5 140.1 Z" fill="#f6e6bf" opacity="0.7559113347437232"/><path d="M 708.2908424790949 234.1 L 708.9 237.3 L 712.1 237.88210829813033 L 708.9 238.5 L 708.2908424790949 241.7 L 707.7 238.5 L 704.5 237.88210829813033 L 707.7 237.3 Z" fill="#f6e6bf" opacity="0.6720742844510823"/><path d="M 62.46176007203758 30.6 L 63.1 34.0 L 66.4 34.60681867413223 L 63.1 35.2 L 62.46176007203758 38.6 L 61.8 35.2 L 58.5 34.60681867413223 L 61.8 34.0 Z" fill="#f6e6bf" opacity="0.6775479860138148"/><path d="M 336.9024896528572 36.0 L 337.3 38.3 L 339.7 38.72664432134479 L 337.3 39.2 L 336.9024896528572 41.5 L 336.5 39.2 L 334.2 38.72664432134479 L 336.5 38.3 Z" fill="#f6e6bf" opacity="0.7901672697160393"/><path d="M 691.2 59.7 L 741.3 227.2 L 307.4 160.7 L 621.6 403.1 L 232.1 326.6" fill="none" stroke="#d4af6a" stroke-width="0.6" opacity="0.12"/>
  <rect x="1.5" y="1.5" width="757" height="430" rx="22" fill="none" stroke="#d4af6a" stroke-opacity="0.34" stroke-width="1.2"/>
  <rect x="7" y="7" width="746" height="419" rx="17" fill="none" stroke="#d4af6a" stroke-opacity="0.12" stroke-width="0.8"/>
  <path d="M 16 12.8 L 16.5 15.5 L 19.2 16 L 16.5 16.5 L 16 19.2 L 15.5 16.5 L 12.8 16 L 15.5 15.5 Z" fill="#d4af6a" opacity="0.4"/><path d="M 744 12.8 L 744.5 15.5 L 747.2 16 L 744.5 16.5 L 744 19.2 L 743.5 16.5 L 740.8 16 L 743.5 15.5 Z" fill="#d4af6a" opacity="0.4"/><path d="M 16 413.8 L 16.5 416.5 L 19.2 417 L 16.5 417.5 L 16 420.2 L 15.5 417.5 L 12.8 417 L 15.5 416.5 Z" fill="#d4af6a" opacity="0.4"/><path d="M 744 413.8 L 744.5 416.5 L 747.2 417 L 744.5 417.5 L 744 420.2 L 743.5 417.5 L 740.8 417 L 743.5 416.5 Z" fill="#d4af6a" opacity="0.4"/>
  <text x="380" y="46" text-anchor="middle" font-family="Georgia, 'Times New Roman', serif" font-size="22" letter-spacing="0.4" fill="#efeaf8">如何在星盘中解读 Punarvasu</text>
  <line x1="230" y1="67" x2="368" y2="67" stroke="url(#punarvasunakshatra1zh-rule)" stroke-width="1"/>
  <line x1="392" y1="67" x2="530" y2="67" stroke="url(#punarvasunakshatra1zh-rule)" stroke-width="1"/>
  <path d="M 380 62.0 L 380.8 66.2 L 385.0 67 L 380.8 67.8 L 380 72.0 L 379.2 67.8 L 375.0 67 L 379.2 66.2 Z" fill="#d4af6a" opacity="0.85"/>
  <line x1="76" y1="121" x2="76" y2="361" stroke="#d4af6a" stroke-opacity="0.28" stroke-width="1.5"/>
  <circle cx="76" cy="121" r="20.0" fill="url(#punarvasunakshatra1zh-glow)" opacity="0.5"/>
    <circle cx="76" cy="121" r="15" fill="url(#punarvasunakshatra1zh-foil)" stroke="#f6e6bf" stroke-opacity="0.5" stroke-width="0.8"/>
    <circle cx="76" cy="116.8" r="9.0" fill="#ffffff" opacity="0.10"/>
    <text x="76" y="125.5" text-anchor="middle" font-family="Georgia, 'Times New Roman', serif" font-size="13" font-weight="700" fill="#3a2c12">1</text>
  <text x="116" y="117.0" font-family="Georgia, 'Times New Roman', serif" font-size="22" letter-spacing="0.3" fill="#f3effb">确认月亮位置</text>
  <text x="116" y="139.0" font-family="Helvetica, Arial, sans-serif" font-size="15.5" fill="#a59cc0">月亮位于吠陀星盘双子座20°至巨蟹座3°20'之间</text>
  <circle cx="76" cy="181" r="20.0" fill="url(#punarvasunakshatra1zh-glow)" opacity="0.5"/>
    <circle cx="76" cy="181" r="15" fill="url(#punarvasunakshatra1zh-foil)" stroke="#f6e6bf" stroke-opacity="0.5" stroke-width="0.8"/>
    <circle cx="76" cy="176.8" r="9.0" fill="#ffffff" opacity="0.10"/>
    <text x="76" y="185.5" text-anchor="middle" font-family="Georgia, 'Times New Roman', serif" font-size="13" font-weight="700" fill="#3a2c12">2</text>
  <text x="116" y="177.0" font-family="Georgia, 'Times New Roman', serif" font-size="22" letter-spacing="0.3" fill="#f3effb">解读木星状态</text>
  <text x="116" y="199.0" font-family="Helvetica, Arial, sans-serif" font-size="15.5" fill="#a59cc0">木星的位置、星座和相位影响更新主题的表达方式</text>
  <circle cx="76" cy="241" r="20.0" fill="url(#punarvasunakshatra1zh-glow)" opacity="0.5"/>
    <circle cx="76" cy="241" r="15" fill="url(#punarvasunakshatra1zh-foil)" stroke="#f6e6bf" stroke-opacity="0.5" stroke-width="0.8"/>
    <circle cx="76" cy="236.8" r="9.0" fill="#ffffff" opacity="0.10"/>
    <text x="76" y="245.5" text-anchor="middle" font-family="Georgia, 'Times New Roman', serif" font-size="13" font-weight="700" fill="#3a2c12">3</text>
  <text x="116" y="237.0" font-family="Georgia, 'Times New Roman', serif" font-size="22" letter-spacing="0.3" fill="#f3effb">注意所在半段</text>
  <text x="116" y="259.0" font-family="Helvetica, Arial, sans-serif" font-size="15.5" fill="#a59cc0">双子座一侧偏向智识恢复；巨蟹座一侧偏向情感恢复</text>
  <circle cx="76" cy="301" r="20.0" fill="url(#punarvasunakshatra1zh-glow)" opacity="0.5"/>
    <circle cx="76" cy="301" r="15" fill="url(#punarvasunakshatra1zh-foil)" stroke="#f6e6bf" stroke-opacity="0.5" stroke-width="0.8"/>
    <circle cx="76" cy="296.8" r="9.0" fill="#ffffff" opacity="0.10"/>
    <text x="76" y="305.5" text-anchor="middle" font-family="Georgia, 'Times New Roman', serif" font-size="13" font-weight="700" fill="#3a2c12">4</text>
  <text x="116" y="297.0" font-family="Georgia, 'Times New Roman', serif" font-size="22" letter-spacing="0.3" fill="#f3effb">观察归来模式</text>
  <text x="116" y="319.0" font-family="Helvetica, Arial, sans-serif" font-size="15.5" fill="#a59cc0">观察过去挫折是否转化为成长而非停滞</text>
  <circle cx="76" cy="361" r="20.0" fill="url(#punarvasunakshatra1zh-glow)" opacity="0.5"/>
    <circle cx="76" cy="361" r="15" fill="url(#punarvasunakshatra1zh-foil)" stroke="#f6e6bf" stroke-opacity="0.5" stroke-width="0.8"/>
    <circle cx="76" cy="356.8" r="9.0" fill="#ffffff" opacity="0.10"/>
    <text x="76" y="365.5" text-anchor="middle" font-family="Georgia, 'Times New Roman', serif" font-size="13" font-weight="700" fill="#3a2c12">5</text>
  <text x="116" y="357.0" font-family="Georgia, 'Times New Roman', serif" font-size="22" letter-spacing="0.3" fill="#f3effb">轻握阿底提主题</text>
  <text x="116" y="379.0" font-family="Helvetica, Arial, sans-serif" font-size="15.5" fill="#a59cc0">阿底提的无限性代表更新潜能，而非逆转一切的保证</text>
  <path d="M 280.025 404.4 L 280.4 406.6 L 282.6 407 L 280.4 407.4 L 280.025 409.6 L 279.6 407.4 L 277.4 407 L 279.6 406.6 Z" fill="#d4af6a" opacity="0.5"/>
  <text x="380" y="411" text-anchor="middle" font-family="Georgia, 'Times New Roman', serif" font-style="italic" font-size="11.5" fill="#7b738f">自我反思框架，描述倾向而非预测</text>
  <path d="M 479.975 404.4 L 480.4 406.6 L 482.6 407 L 480.4 407.4 L 479.975 409.6 L 479.6 407.4 L 477.4 407 L 479.6 406.6 Z" fill="#d4af6a" opacity="0.5"/>
</svg>
