<svg xmlns="http://www.w3.org/2000/svg" viewBox="0 0 760 196" role="img" aria-label="">
  <defs>
    <linearGradient id="saturnreturninscorpio0zh-panel" x1="0" y1="0" x2="0.4" y2="1">
      <stop offset="0" stop-color="#1a1433"/><stop offset="0.55" stop-color="#120e26"/><stop offset="1" stop-color="#09081a"/>
    </linearGradient>
    <radialGradient id="saturnreturninscorpio0zh-foil" cx="0.42" cy="0.34" r="0.75">
      <stop offset="0" stop-color="#fbf0d2"/><stop offset="0.5" stop-color="#e8c882"/><stop offset="1" stop-color="#b8923f"/>
    </radialGradient>
    <radialGradient id="saturnreturninscorpio0zh-glow" cx="0.5" cy="0.5" r="0.5">
      <stop offset="0" stop-color="#f6e6bf"/><stop offset="1" stop-color="#f6e6bf" stop-opacity="0"/>
    </radialGradient>
    <radialGradient id="saturnreturninscorpio0zh-neb1" cx="0.5" cy="0.5" r="0.5">
      <stop offset="0" stop-color="#6f4bb0" stop-opacity="0.28"/><stop offset="1" stop-color="#6f4bb0" stop-opacity="0"/>
    </radialGradient>
    <radialGradient id="saturnreturninscorpio0zh-neb2" cx="0.5" cy="0.5" r="0.5">
      <stop offset="0" stop-color="#d4af6a" stop-opacity="0.16"/><stop offset="1" stop-color="#d4af6a" stop-opacity="0"/>
    </radialGradient>
    <linearGradient id="saturnreturninscorpio0zh-rule" x1="0" y1="0" x2="1" y2="0">
      <stop offset="0" stop-color="#d4af6a" stop-opacity="0"/><stop offset="0.5" stop-color="#d4af6a" stop-opacity="0.6"/><stop offset="1" stop-color="#d4af6a" stop-opacity="0"/>
    </linearGradient>
  </defs>
  <rect x="1.5" y="1.5" width="757" height="193" rx="22" fill="url(#saturnreturninscorpio0zh-panel)"/>
  <ellipse cx="198" cy="47" rx="380" ry="67" fill="url(#saturnreturninscorpio0zh-neb1)"/>
  <ellipse cx="623" cy="157" rx="334" ry="63" fill="url(#saturnreturninscorpio0zh-neb2)"/>
  <circle cx="481.2" cy="72.4" r="0.90" fill="#cfc8ea" opacity="0.31"/><circle cx="448.4" cy="178.5" r="0.64" fill="#cfc8ea" opacity="0.21"/><circle cx="296.5" cy="113.0" r="1.14" fill="#cfc8ea" opacity="0.32"/><circle cx="134.4" cy="124.1" r="0.68" fill="#cfc8ea" opacity="0.45"/><circle cx="613.8" cy="99.4" r="1.21" fill="#cfc8ea" opacity="0.24"/><circle cx="261.7" cy="34.2" r="0.71" fill="#cfc8ea" opacity="0.33"/><circle cx="622.6" cy="91.2" r="0.51" fill="#cfc8ea" opacity="0.50"/><circle cx="395.6" cy="129.5" r="1.66" fill="#cfc8ea" opacity="0.46"/><circle cx="18.7" cy="20.3" r="1.37" fill="#cfc8ea" opacity="0.28"/><circle cx="651.2" cy="31.9" r="1.50" fill="#cfc8ea" opacity="0.36"/><circle cx="536.5" cy="35.7" r="0.96" fill="#cfc8ea" opacity="0.47"/><circle cx="308.1" cy="27.3" r="1.27" fill="#cfc8ea" opacity="0.28"/><circle cx="117.4" cy="84.7" r="0.60" fill="#cfc8ea" opacity="0.31"/><circle cx="675.8" cy="178.5" r="1.64" fill="#cfc8ea" opacity="0.41"/><circle cx="199.0" cy="145.6" r="0.76" fill="#cfc8ea" opacity="0.14"/><circle cx="740.1" cy="51.7" r="1.32" fill="#cfc8ea" opacity="0.26"/><circle cx="125.7" cy="38.4" r="1.10" fill="#cfc8ea" opacity="0.13"/><path d="M 555.49030748941 178.0 L 556.0 180.6 L 558.5 181.06106795743108 L 556.0 181.5 L 555.49030748941 184.1 L 555.0 181.5 L 552.4 181.06106795743108 L 555.0 180.6 Z" fill="#f6e6bf" opacity="0.6427868182770908"/><path d="M 742.8183744568378 99.9 L 743.2 101.9 L 745.2 102.29236587509513 L 743.2 102.7 L 742.8183744568378 104.7 L 742.4 102.7 L 740.4 102.29236587509513 L 742.4 101.9 Z" fill="#f6e6bf" opacity="0.6830573515966535"/><path d="M 523.1413291338831 34.3 L 523.8 37.6 L 527.0 38.169398698955774 L 523.8 38.8 L 523.1413291338831 42.0 L 522.5 38.8 L 519.3 38.169398698955774 L 522.5 37.6 Z" fill="#f6e6bf" opacity="0.6142479025758802"/><path d="M 163.67603515274823 170.8 L 164.3 174.1 L 167.5 174.67771826311946 L 164.3 175.3 L 163.67603515274823 178.5 L 163.1 175.3 L 159.8 174.67771826311946 L 163.1 174.1 Z" fill="#f6e6bf" opacity="0.6975639298558235"/><path d="M 188.69047308899462 154.2 L 189.2 156.9 L 191.9 157.44060223177075 L 189.2 158.0 L 188.69047308899462 160.6 L 188.2 158.0 L 185.5 157.44060223177075 L 188.2 156.9 Z" fill="#f6e6bf" opacity="0.5272366336546839"/><path d="M 134.4 124.1 L 261.7 34.2 L 651.2 31.9" fill="none" stroke="#d4af6a" stroke-width="0.6" opacity="0.12"/>
  <rect x="1.5" y="1.5" width="757" height="193" rx="22" fill="none" stroke="#d4af6a" stroke-opacity="0.34" stroke-width="1.2"/>
  <rect x="7" y="7" width="746" height="182" rx="17" fill="none" stroke="#d4af6a" stroke-opacity="0.12" stroke-width="0.8"/>
  <path d="M 16 12.8 L 16.5 15.5 L 19.2 16 L 16.5 16.5 L 16 19.2 L 15.5 16.5 L 12.8 16 L 15.5 15.5 Z" fill="#d4af6a" opacity="0.4"/><path d="M 744 12.8 L 744.5 15.5 L 747.2 16 L 744.5 16.5 L 744 19.2 L 743.5 16.5 L 740.8 16 L 743.5 15.5 Z" fill="#d4af6a" opacity="0.4"/><path d="M 16 176.8 L 16.5 179.5 L 19.2 180 L 16.5 180.5 L 16 183.2 L 15.5 180.5 L 12.8 180 L 15.5 179.5 Z" fill="#d4af6a" opacity="0.4"/><path d="M 744 176.8 L 744.5 179.5 L 747.2 180 L 744.5 180.5 L 744 183.2 L 743.5 180.5 L 740.8 180 L 743.5 179.5 Z" fill="#d4af6a" opacity="0.4"/>

  <line x1="230" y1="40" x2="368" y2="40" stroke="url(#saturnreturninscorpio0zh-rule)" stroke-width="1"/>
  <line x1="392" y1="40" x2="530" y2="40" stroke="url(#saturnreturninscorpio0zh-rule)" stroke-width="1"/>
  <path d="M 380 35.0 L 380.8 39.2 L 385.0 40 L 380.8 40.8 L 380 45.0 L 379.2 40.8 L 375.0 40 L 379.2 39.2 Z" fill="#d4af6a" opacity="0.85"/>

  <rect x="46" y="72" width="668" height="32.0" rx="14" fill="#1d1740" fill-opacity="0.5" stroke="#d4af6a" stroke-opacity="0.22" stroke-width="0.9"/>
  <rect x="46" y="72" width="3.5" height="32.0" rx="1.8" fill="#d4af6a" fill-opacity="0.6"/>
  <path d="M 47.75 81.6 L 48.3 84.5 L 51.1 85 L 48.3 85.5 L 47.75 88.4 L 47.2 85.5 L 44.4 85 L 47.2 84.5 Z" fill="#f6e6bf" opacity="0.7"/>
  <path d="M 380 112.5 L 380.7 116.3 L 384.5 117 L 380.7 117.7 L 380 121.5 L 379.3 117.7 L 375.5 117 L 379.3 116.3 Z" fill="#d4af6a" opacity="0.65"/>
  <rect x="46" y="130" width="668" height="32.0" rx="14" fill="#1d1740" fill-opacity="0.5" stroke="#d4af6a" stroke-opacity="0.22" stroke-width="0.9"/>
  <rect x="46" y="130" width="3.5" height="32.0" rx="1.8" fill="#d4af6a" fill-opacity="0.6"/>
  <path d="M 47.75 139.6 L 48.3 142.5 L 51.1 143 L 48.3 143.5 L 47.75 146.4 L 47.2 143.5 L 44.4 143 L 47.2 142.5 Z" fill="#f6e6bf" opacity="0.7"/>
  <path d="M 280.025 167.4 L 280.4 169.6 L 282.6 170 L 280.4 170.4 L 280.025 172.6 L 279.6 170.4 L 277.4 170 L 279.6 169.6 Z" fill="#d4af6a" opacity="0.5"/>
  <text x="380" y="174" text-anchor="middle" font-family="Georgia, 'Times New Roman', serif" font-style="italic" font-size="11.5" fill="#7b738f">自我反思框架，描述倾向而非预测</text>
  <path d="M 479.975 167.4 L 480.4 169.6 L 482.6 170 L 480.4 170.4 L 479.975 172.6 L 479.6 170.4 L 477.4 170 L 479.6 169.6 Z" fill="#d4af6a" opacity="0.5"/>
</svg>
