<svg xmlns="http://www.w3.org/2000/svg" viewBox="0 0 760 523" role="img" aria-label="5 Steps to Read MBTI-Zodiac Pairings">
  <defs>
    <linearGradient id="themostcommonmbtitypesforeachzodiacsign0en-panel" x1="0" y1="0" x2="0.4" y2="1">
      <stop offset="0" stop-color="#1a1433"/><stop offset="0.55" stop-color="#120e26"/><stop offset="1" stop-color="#09081a"/>
    </linearGradient>
    <radialGradient id="themostcommonmbtitypesforeachzodiacsign0en-foil" cx="0.42" cy="0.34" r="0.75">
      <stop offset="0" stop-color="#fbf0d2"/><stop offset="0.5" stop-color="#e8c882"/><stop offset="1" stop-color="#b8923f"/>
    </radialGradient>
    <radialGradient id="themostcommonmbtitypesforeachzodiacsign0en-glow" cx="0.5" cy="0.5" r="0.5">
      <stop offset="0" stop-color="#f6e6bf"/><stop offset="1" stop-color="#f6e6bf" stop-opacity="0"/>
    </radialGradient>
    <radialGradient id="themostcommonmbtitypesforeachzodiacsign0en-neb1" cx="0.5" cy="0.5" r="0.5">
      <stop offset="0" stop-color="#6f4bb0" stop-opacity="0.28"/><stop offset="1" stop-color="#6f4bb0" stop-opacity="0"/>
    </radialGradient>
    <radialGradient id="themostcommonmbtitypesforeachzodiacsign0en-neb2" cx="0.5" cy="0.5" r="0.5">
      <stop offset="0" stop-color="#d4af6a" stop-opacity="0.16"/><stop offset="1" stop-color="#d4af6a" stop-opacity="0"/>
    </radialGradient>
    <linearGradient id="themostcommonmbtitypesforeachzodiacsign0en-rule" x1="0" y1="0" x2="1" y2="0">
      <stop offset="0" stop-color="#d4af6a" stop-opacity="0"/><stop offset="0.5" stop-color="#d4af6a" stop-opacity="0.6"/><stop offset="1" stop-color="#d4af6a" stop-opacity="0"/>
    </linearGradient>
  </defs>
  <rect x="1.5" y="1.5" width="757" height="520" rx="22" fill="url(#themostcommonmbtitypesforeachzodiacsign0en-panel)"/>
  <ellipse cx="198" cy="126" rx="380" ry="178" fill="url(#themostcommonmbtitypesforeachzodiacsign0en-neb1)"/>
  <ellipse cx="623" cy="418" rx="334" ry="167" fill="url(#themostcommonmbtitypesforeachzodiacsign0en-neb2)"/>
  <circle cx="508.1" cy="414.7" r="1.44" fill="#cfc8ea" opacity="0.28"/><circle cx="320.3" cy="255.1" r="1.59" fill="#cfc8ea" opacity="0.51"/><circle cx="468.9" cy="291.0" r="1.37" fill="#cfc8ea" opacity="0.45"/><circle cx="27.4" cy="469.0" r="0.42" fill="#cfc8ea" opacity="0.47"/><circle cx="662.5" cy="30.6" r="0.71" fill="#cfc8ea" opacity="0.39"/><circle cx="598.1" cy="100.9" r="0.62" fill="#cfc8ea" opacity="0.17"/><circle cx="666.2" cy="181.8" r="0.86" fill="#cfc8ea" opacity="0.20"/><circle cx="269.6" cy="192.1" r="1.57" fill="#cfc8ea" opacity="0.48"/><circle cx="402.8" cy="292.3" r="1.40" fill="#cfc8ea" opacity="0.52"/><circle cx="158.5" cy="73.2" r="0.51" fill="#cfc8ea" opacity="0.51"/><circle cx="407.5" cy="383.2" r="1.36" fill="#cfc8ea" opacity="0.22"/><circle cx="706.8" cy="496.4" r="0.43" fill="#cfc8ea" opacity="0.12"/><circle cx="252.1" cy="255.3" r="0.85" fill="#cfc8ea" opacity="0.29"/><circle cx="634.6" cy="243.5" r="0.96" fill="#cfc8ea" opacity="0.17"/><circle cx="725.1" cy="165.4" r="1.23" fill="#cfc8ea" opacity="0.39"/><circle cx="427.6" cy="282.1" r="1.58" fill="#cfc8ea" opacity="0.33"/><circle cx="308.4" cy="180.3" r="0.93" fill="#cfc8ea" opacity="0.45"/><circle cx="34.8" cy="310.7" r="1.59" fill="#cfc8ea" opacity="0.41"/><circle cx="631.5" cy="443.8" r="0.82" fill="#cfc8ea" opacity="0.50"/><circle cx="475.2" cy="25.4" r="0.97" fill="#cfc8ea" opacity="0.24"/><circle cx="708.0" cy="366.0" r="1.07" fill="#cfc8ea" opacity="0.44"/><circle cx="273.7" cy="407.2" r="1.54" fill="#cfc8ea" opacity="0.36"/><circle cx="612.2" cy="244.3" r="0.85" fill="#cfc8ea" opacity="0.48"/><circle cx="162.9" cy="418.8" r="1.56" fill="#cfc8ea" opacity="0.36"/><circle cx="618.1" cy="237.7" r="0.69" fill="#cfc8ea" opacity="0.40"/><circle cx="49.9" cy="249.2" r="0.91" fill="#cfc8ea" opacity="0.33"/><circle cx="559.6" cy="304.9" r="1.33" fill="#cfc8ea" opacity="0.30"/><circle cx="386.4" cy="44.9" r="0.84" fill="#cfc8ea" opacity="0.22"/><circle cx="140.1" cy="382.2" r="0.67" fill="#cfc8ea" opacity="0.15"/><circle cx="38.8" cy="287.3" r="1.63" fill="#cfc8ea" opacity="0.27"/><circle cx="667.8" cy="98.5" r="0.65" fill="#cfc8ea" opacity="0.30"/><circle cx="510.1" cy="44.2" r="1.28" fill="#cfc8ea" opacity="0.52"/><circle cx="119.1" cy="362.3" r="1.55" fill="#cfc8ea" opacity="0.16"/><circle cx="446.1" cy="155.3" r="0.72" fill="#cfc8ea" opacity="0.37"/><circle cx="747.9" cy="137.6" r="1.25" fill="#cfc8ea" opacity="0.47"/><circle cx="617.0" cy="410.3" r="0.55" fill="#cfc8ea" opacity="0.31"/><circle cx="196.6" cy="242.1" r="0.75" fill="#cfc8ea" opacity="0.28"/><circle cx="595.9" cy="321.1" r="1.66" fill="#cfc8ea" opacity="0.53"/><circle cx="227.8" cy="86.1" r="1.41" fill="#cfc8ea" opacity="0.26"/><circle cx="483.5" cy="112.5" r="1.47" fill="#cfc8ea" opacity="0.33"/><circle cx="36.2" cy="402.5" r="1.37" fill="#cfc8ea" opacity="0.13"/><circle cx="102.5" cy="489.8" r="0.87" fill="#cfc8ea" opacity="0.33"/><circle cx="550.6" cy="296.5" r="0.91" fill="#cfc8ea" opacity="0.52"/><circle cx="77.2" cy="401.7" r="0.42" fill="#cfc8ea" opacity="0.35"/><path d="M 742.5945043619722 337.3 L 743.2 340.6 L 746.5 341.21036405768245 L 743.2 341.8 L 742.5945043619722 345.1 L 742.0 341.8 L 738.7 341.21036405768245 L 742.0 340.6 Z" fill="#f6e6bf" opacity="0.7828997433651239"/><path d="M 661.8457451742142 424.3 L 662.4 427.4 L 665.5 427.98019042797387 L 662.4 428.6 L 661.8457451742142 431.7 L 661.3 428.6 L 658.2 427.98019042797387 L 661.3 427.4 Z" fill="#f6e6bf" opacity="0.5144001349341124"/><path d="M 150.48973803780973 179.4 L 150.9 181.6 L 153.1 181.99053624738008 L 150.9 182.4 L 150.48973803780973 184.6 L 150.1 182.4 L 147.9 181.99053624738008 L 150.1 181.6 Z" fill="#f6e6bf" opacity="0.5191359295044095"/><path d="M 268.07902468554676 332.7 L 268.7 336.0 L 272.0 336.5810247287154 L 268.7 337.2 L 268.07902468554676 340.5 L 267.5 337.2 L 264.2 336.5810247287154 L 267.5 336.0 Z" fill="#f6e6bf" opacity="0.766699388390407"/><path d="M 429.2150665279478 410.6 L 429.8 413.6 L 432.7 414.12720971833915 L 429.8 414.7 L 429.2150665279478 417.7 L 428.6 414.7 L 425.7 414.12720971833915 L 428.6 413.6 Z" fill="#f6e6bf" opacity="0.6668709900695831"/><path d="M 662.5 30.6 L 162.9 418.8 L 49.9 249.2 L 550.6 296.5" fill="none" stroke="#d4af6a" stroke-width="0.6" opacity="0.12"/>
  <rect x="1.5" y="1.5" width="757" height="520" rx="22" fill="none" stroke="#d4af6a" stroke-opacity="0.34" stroke-width="1.2"/>
  <rect x="7" y="7" width="746" height="509" rx="17" fill="none" stroke="#d4af6a" stroke-opacity="0.12" stroke-width="0.8"/>
  <path d="M 16 12.8 L 16.5 15.5 L 19.2 16 L 16.5 16.5 L 16 19.2 L 15.5 16.5 L 12.8 16 L 15.5 15.5 Z" fill="#d4af6a" opacity="0.4"/><path d="M 744 12.8 L 744.5 15.5 L 747.2 16 L 744.5 16.5 L 744 19.2 L 743.5 16.5 L 740.8 16 L 743.5 15.5 Z" fill="#d4af6a" opacity="0.4"/><path d="M 16 503.8 L 16.5 506.5 L 19.2 507 L 16.5 507.5 L 16 510.2 L 15.5 507.5 L 12.8 507 L 15.5 506.5 Z" fill="#d4af6a" opacity="0.4"/><path d="M 744 503.8 L 744.5 506.5 L 747.2 507 L 744.5 507.5 L 744 510.2 L 743.5 507.5 L 740.8 507 L 743.5 506.5 Z" fill="#d4af6a" opacity="0.4"/>
  <text x="380" y="46" text-anchor="middle" font-family="Georgia, 'Times New Roman', serif" font-size="22" letter-spacing="0.4" fill="#efeaf8">5 Steps to Read MBTI-Zodiac Pairings</text>
  <line x1="230" y1="67" x2="368" y2="67" stroke="url(#themostcommonmbtitypesforeachzodiacsign0en-rule)" stroke-width="1"/>
  <line x1="392" y1="67" x2="530" y2="67" stroke="url(#themostcommonmbtitypesforeachzodiacsign0en-rule)" stroke-width="1"/>
  <path d="M 380 62.0 L 380.8 66.2 L 385.0 67 L 380.8 67.8 L 380 72.0 L 379.2 67.8 L 375.0 67 L 379.2 66.2 Z" fill="#d4af6a" opacity="0.85"/>
  <line x1="76" y1="121" x2="76" y2="433" stroke="#d4af6a" stroke-opacity="0.28" stroke-width="1.5"/>
  <circle cx="76" cy="121" r="20.0" fill="url(#themostcommonmbtitypesforeachzodiacsign0en-glow)" opacity="0.5"/>
    <circle cx="76" cy="121" r="15" fill="url(#themostcommonmbtitypesforeachzodiacsign0en-foil)" stroke="#f6e6bf" stroke-opacity="0.5" stroke-width="0.8"/>
    <circle cx="76" cy="116.8" r="9.0" fill="#ffffff" opacity="0.10"/>
    <text x="76" y="125.5" text-anchor="middle" font-family="Georgia, 'Times New Roman', serif" font-size="13" font-weight="700" fill="#3a2c12">1</text>
  <text x="116" y="117.0" font-family="Georgia, 'Times New Roman', serif" font-size="22" letter-spacing="0.3" fill="#f3effb">Notice Your Default Pace</text>
  <text x="116" y="139.0" font-family="Helvetica, Arial, sans-serif" font-size="15.5" fill="#a59cc0">Quick decisions and visible risk-taking resemble Aries-ESTP; slow, repeatable</text>
  <text x="116" y="157.0" font-family="Helvetica, Arial, sans-serif" font-size="15.5" fill="#a59cc0">choices fit Taurus-ISTJ</text>
  <circle cx="76" cy="199" r="20.0" fill="url(#themostcommonmbtitypesforeachzodiacsign0en-glow)" opacity="0.5"/>
    <circle cx="76" cy="199" r="15" fill="url(#themostcommonmbtitypesforeachzodiacsign0en-foil)" stroke="#f6e6bf" stroke-opacity="0.5" stroke-width="0.8"/>
    <circle cx="76" cy="194.8" r="9.0" fill="#ffffff" opacity="0.10"/>
    <text x="76" y="203.5" text-anchor="middle" font-family="Georgia, 'Times New Roman', serif" font-size="13" font-weight="700" fill="#3a2c12">2</text>
  <text x="116" y="195.0" font-family="Georgia, 'Times New Roman', serif" font-size="22" letter-spacing="0.3" fill="#f3effb">Separate Social Confidence from Sociability</text>
  <text x="116" y="217.0" font-family="Helvetica, Arial, sans-serif" font-size="15.5" fill="#a59cc0">Leo can look expressive in public while an introvert still enjoys recognition</text>
  <text x="116" y="235.0" font-family="Helvetica, Arial, sans-serif" font-size="15.5" fill="#a59cc0">without constant company</text>
  <circle cx="76" cy="277" r="20.0" fill="url(#themostcommonmbtitypesforeachzodiacsign0en-glow)" opacity="0.5"/>
    <circle cx="76" cy="277" r="15" fill="url(#themostcommonmbtitypesforeachzodiacsign0en-foil)" stroke="#f6e6bf" stroke-opacity="0.5" stroke-width="0.8"/>
    <circle cx="76" cy="272.8" r="9.0" fill="#ffffff" opacity="0.10"/>
    <text x="76" y="281.5" text-anchor="middle" font-family="Georgia, 'Times New Roman', serif" font-size="13" font-weight="700" fill="#3a2c12">3</text>
  <text x="116" y="273.0" font-family="Georgia, 'Times New Roman', serif" font-size="22" letter-spacing="0.3" fill="#f3effb">Compare Your Mercury Sign</text>
  <text x="116" y="295.0" font-family="Helvetica, Arial, sans-serif" font-size="15.5" fill="#a59cc0">Mercury explains why a Gemini Sun speaks differently from the MBTI type</text>
  <text x="116" y="313.0" font-family="Helvetica, Arial, sans-serif" font-size="15.5" fill="#a59cc0">attached to the Sun-sign stereotype</text>
  <circle cx="76" cy="355" r="20.0" fill="url(#themostcommonmbtitypesforeachzodiacsign0en-glow)" opacity="0.5"/>
    <circle cx="76" cy="355" r="15" fill="url(#themostcommonmbtitypesforeachzodiacsign0en-foil)" stroke="#f6e6bf" stroke-opacity="0.5" stroke-width="0.8"/>
    <circle cx="76" cy="350.8" r="9.0" fill="#ffffff" opacity="0.10"/>
    <text x="76" y="359.5" text-anchor="middle" font-family="Georgia, 'Times New Roman', serif" font-size="13" font-weight="700" fill="#3a2c12">4</text>
  <text x="116" y="351.0" font-family="Georgia, 'Times New Roman', serif" font-size="22" letter-spacing="0.3" fill="#f3effb">Watch Responses Under Pressure</text>
  <text x="116" y="373.0" font-family="Helvetica, Arial, sans-serif" font-size="15.5" fill="#a59cc0">Capricorn-like structure may appear when plans change, even if everyday</text>
  <text x="116" y="391.0" font-family="Helvetica, Arial, sans-serif" font-size="15.5" fill="#a59cc0">behavior looks playful or flexible</text>
  <circle cx="76" cy="433" r="20.0" fill="url(#themostcommonmbtitypesforeachzodiacsign0en-glow)" opacity="0.5"/>
    <circle cx="76" cy="433" r="15" fill="url(#themostcommonmbtitypesforeachzodiacsign0en-foil)" stroke="#f6e6bf" stroke-opacity="0.5" stroke-width="0.8"/>
    <circle cx="76" cy="428.8" r="9.0" fill="#ffffff" opacity="0.10"/>
    <text x="76" y="437.5" text-anchor="middle" font-family="Georgia, 'Times New Roman', serif" font-size="13" font-weight="700" fill="#3a2c12">5</text>
  <text x="116" y="429.0" font-family="Georgia, 'Times New Roman', serif" font-size="22" letter-spacing="0.3" fill="#f3effb">Use Repeated Examples</text>
  <text x="116" y="451.0" font-family="Helvetica, Arial, sans-serif" font-size="15.5" fill="#a59cc0">Observe work meetings, family decisions, and friendships over time rather than</text>
  <text x="116" y="469.0" font-family="Helvetica, Arial, sans-serif" font-size="15.5" fill="#a59cc0">deciding from one mood</text>
  <path d="M 202.22749999999988 494.4 L 202.6 496.6 L 204.8 497 L 202.6 497.4 L 202.22749999999988 499.6 L 201.8 497.4 L 199.6 497 L 201.8 496.6 Z" fill="#d4af6a" opacity="0.5"/>
  <text x="380" y="501" text-anchor="middle" font-family="Georgia, 'Times New Roman', serif" font-style="italic" font-size="11.5" fill="#7b738f">A self-reflection framework — tendencies, not predictions</text>
  <path d="M 557.7725000000002 494.4 L 558.2 496.6 L 560.4 497 L 558.2 497.4 L 557.7725000000002 499.6 L 557.4 497.4 L 555.2 497 L 557.4 496.6 Z" fill="#d4af6a" opacity="0.5"/>
</svg>
